STARTFONT 2.1
FONT --Ai360Gvp-Regular-R-Normal--46-360-92-92-P-252-GEM-0
SIZE 36 92 92
FONTBOUNDINGBOX 60 55 -2 -12
METRICSSET 2
STARTPROPERTIES 21
FONT_ASCENT 34
FONT_DESCENT 12
PIXEL_SIZE 46
RESOLUTION_X 92
RESOLUTION_Y 92
POINT_SIZE 360
FACE_NAME "Dutch"
FOUNDRY ""
FAMILY_NAME "Ai360Gvp"
WEIGHT_NAME "Regular"
RELATIVE_WEIGHT 50
SLANT "R"
SPACING "P"
SETWIDTH_NAME "Normal"
RELATIVE_SETWIDTH 50
ADD_STYLE_NAME ""
AVERAGE_WIDTH 252
UNDERLINE_THICKNESS 3
CHARSET_REGISTRY "GEM"
CHARSET_ENCODING "0"
GDOS "font-id=14 left-offset=6 right-offset=16"
ENDPROPERTIES
CHARS 194
STARTCHAR space
ENCODING 32
SWIDTH 239 0
DWIDTH 11 0
BBX 0 0 11 43
VVECTOR 17 43
SWIDTH1 0 -1196
DWIDTH1 0 -55
BITMAP 
ENDCHAR
STARTCHAR exclam
ENCODING 33
SWIDTH 326 0
DWIDTH 15 0
BBX 6 33 4 0
VVECTOR 7 43
SWIDTH1 0 -1196
DWIDTH1 0 -55
BITMAP 
78
7C
FC
FC
FC
FC
FC
7C
78
78
78
78
78
78
78
78
30
30
30
30
30
30
30
30
00
00
00
00
78
FC
FC
FC
78
ENDCHAR
STARTCHAR quotedbl
ENCODING 34
SWIDTH 326 0
DWIDTH 15 0
BBX 11 13 2 19
VVECTOR 8 43
SWIDTH1 0 -1196
DWIDTH1 0 -55
BITMAP 
60C0
F1E0
F1E0
F1E0
F1E0
F1E0
60C0
60C0
60C0
60C0
60C0
60C0
2080
ENDCHAR
STARTCHAR numbersign
ENCODING 35
SWIDTH 761 0
DWIDTH 35 0
BBX 31 32 2 0
VVECTOR 18 43
SWIDTH1 0 -1196
DWIDTH1 0 -55
BITMAP 
0001C0F0
0003C0E0
000380E0
000381E0
000781C0
000703C0
000703C0
000F0380
000E0780
001E0780
0FFFFFFE
1FFFFFFC
1FFFFFFC
00380E00
00381E00
00781C00
00701C00
00703C00
00F03800
7FFFFFF0
7FFFFFF0
FFFFFFE0
01C0F000
03C0E000
03C0E000
0381E000
0781C000
0701C000
0703C000
0F038000
0E038000
1E078000
ENDCHAR
STARTCHAR dollar
ENCODING 36
SWIDTH 500 0
DWIDTH 23 0
BBX 18 38 2 -4
VVECTOR 11 43
SWIDTH1 0 -1196
DWIDTH1 0 -55
BITMAP 
00C000
00C000
07F800
1CCF80
38C780
78C380
F0C380
F0C180
F0C180
F0C080
F8C000
78C000
7EC000
3FC000
1FC000
0FE000
07F000
03F800
01FC00
00FE00
00FF00
00CF80
00CF80
00C7C0
00C3C0
00C3C0
80C3C0
C0C3C0
C0C3C0
E0C380
F0C780
F8C700
FCDE00
1FF800
00C000
00C000
00C000
00C000
ENDCHAR
STARTCHAR percent
ENCODING 37
SWIDTH 935 0
DWIDTH 43 0
BBX 36 34 3 -1
VVECTOR 21 43
SWIDTH1 0 -1196
DWIDTH1 0 -55
BITMAP 
0000000C00
0078001C00
01FC003800
07C6007000
0F01C3B000
1E013C6000
3E0100C000
3C0100C000
7801018000
7803030000
F002030000
F006060000
E0040C0000
E00C0C0000
E018180000
6030300780
7060301FE0
3FC0607C20
1F00C0F830
0000C0F010
000181E010
000303C010
0003078010
0006078010
000C0F0020
000C0F0020
00180E0060
00300E00C0
00300E0180
0060060300
00C0070E00
00C003FC00
018000F000
0300000000
ENDCHAR
STARTCHAR ampersand
ENCODING 38
SWIDTH 804 0
DWIDTH 37 0
BBX 33 33 2 0
VVECTOR 19 43
SWIDTH1 0 -1196
DWIDTH1 0 -55
BITMAP 
0007C00000
000FE00000
001C300000
0038380000
0070180000
0070180000
00F0180000
00F0180000
00F0300000
00F0300000
00F8600000
00F8C00000
007B83FE00
007E00F800
003C00F000
00FE00E000
03BE00E000
071F00C000
0E1F818000
1C0F818000
3807C30000
7807E20000
7803E60000
F801FC0000
F801F80000
F800FC0000
FC007E0000
FC007F0080
7E00DFC180
3F838FFF00
1FFE07FE00
0FFC03FC00
03E000F000
ENDCHAR
STARTCHAR quotesingle
ENCODING 39
SWIDTH 239 0
DWIDTH 11 0
BBX 6 12 3 21
VVECTOR 7 43
SWIDTH1 0 -1196
DWIDTH1 0 -55
BITMAP 
70
F8
FC
FC
7C
0C
0C
18
10
30
40
80
ENDCHAR
STARTCHAR parenleft
ENCODING 40
SWIDTH 370 0
DWIDTH 17 0
BBX 12 45 3 -12
VVECTOR 10 43
SWIDTH1 0 -1196
DWIDTH1 0 -55
BITMAP 
0010
0030
0060
00C0
0380
0300
0600
0E00
1C00
1C00
3C00
3800
3800
7800
7800
7000
7000
F000
F000
F000
F000
F000
F000
F000
F000
F000
F000
F000
7000
7000
7800
7800
3800
3800
3C00
1C00
1C00
0E00
0700
0300
0180
00C0
0060
0030
0010
ENDCHAR
STARTCHAR parenright
ENCODING 41
SWIDTH 370 0
DWIDTH 17 0
BBX 12 45 2 -12
VVECTOR 8 43
SWIDTH1 0 -1196
DWIDTH1 0 -55
BITMAP 
8000
C000
6000
3000
1800
0C00
0E00
0700
0300
0380
03C0
01C0
01C0
01E0
01E0
00E0
00E0
00F0
00F0
00F0
00F0
00F0
00F0
00F0
00F0
00F0
00F0
00F0
00E0
00E0
01E0
01E0
01C0
01C0
03C0
0380
0380
0700
0600
0C00
1800
3000
6000
C000
8000
ENDCHAR
STARTCHAR asterisk
ENCODING 42
SWIDTH 500 0
DWIDTH 23 0
BBX 15 17 4 16
VVECTOR 12 43
SWIDTH1 0 -1196
DWIDTH1 0 -55
BITMAP 
0380
0380
0380
4384
F10E
F11E
793C
07C0
0100
07C0
793C
F11E
E10E
4384
0380
0380
0380
ENDCHAR
STARTCHAR plus
ENCODING 43
SWIDTH 826 0
DWIDTH 38 0
BBX 27 27 6 0
VVECTOR 20 43
SWIDTH1 0 -1196
DWIDTH1 0 -55
BITMAP 
000E0000
000E0000
000E0000
000E0000
000E0000
000E0000
000E0000
000E0000
000E0000
000E0000
000E0000
000E0000
FFFFFFE0
FFFFFFE0
FFFFFFE0
000E0000
000E0000
000E0000
000E0000
000E0000
000E0000
000E0000
000E0000
000E0000
000E0000
000E0000
000E0000
ENDCHAR
STARTCHAR comma
ENCODING 44
SWIDTH 239 0
DWIDTH 11 0
BBX 6 13 2 -8
VVECTOR 5 43
SWIDTH1 0 -1196
DWIDTH1 0 -55
BITMAP 
70
F8
FC
FC
7C
0C
0C
08
18
10
20
40
80
ENDCHAR
STARTCHAR hyphen
ENCODING 45
SWIDTH 326 0
DWIDTH 15 0
BBX 11 3 2 9
VVECTOR 8 43
SWIDTH1 0 -1196
DWIDTH1 0 -55
BITMAP 
FFE0
FFE0
FFE0
ENDCHAR
STARTCHAR period
ENCODING 46
SWIDTH 239 0
DWIDTH 11 0
BBX 6 5 2 0
VVECTOR 5 43
SWIDTH1 0 -1196
DWIDTH1 0 -55
BITMAP 
78
FC
FC
FC
78
ENDCHAR
STARTCHAR slash
ENCODING 47
SWIDTH 261 0
DWIDTH 12 0
BBX 13 38 0 -5
VVECTOR 7 43
SWIDTH1 0 -1196
DWIDTH1 0 -55
BITMAP 
0018
0018
0030
0030
0030
0060
0060
0060
0060
00C0
00C0
00C0
0180
0180
0180
0100
0300
0300
0300
0600
0600
0600
0400
0C00
0C00
0C00
1800
1800
1800
3000
3000
3000
3000
6000
6000
6000
C000
C000
ENDCHAR
STARTCHAR zero
ENCODING 48
SWIDTH 500 0
DWIDTH 23 0
BBX 21 32 1 0
VVECTOR 12 43
SWIDTH1 0 -1196
DWIDTH1 0 -55
BITMAP 
00FC00
038700
060380
0E01C0
1C01C0
3C01E0
3C00F0
7C00F0
7800F0
7800F0
7800F8
F800F8
F800F8
F800F8
F800F8
F800F8
F800F8
F800F8
F800F8
F800F8
F800F8
7800F0
7800F0
7800F0
7C00F0
3C01E0
3C01E0
1C01C0
1E01C0
0E0380
070700
01FC00
ENDCHAR
STARTCHAR one
ENCODING 49
SWIDTH 500 0
DWIDTH 23 0
BBX 15 32 4 0
VVECTOR 12 43
SWIDTH1 0 -1196
DWIDTH1 0 -55
BITMAP 
0040
00C0
03C0
0FC0
1FC0
73C0
C3C0
03C0
03C0
03C0
03C0
03C0
03C0
03C0
03C0
03C0
03C0
03C0
03C0
03C0
03C0
03C0
03C0
03C0
03C0
03C0
03C0
03C0
03C0
03C0
07E0
7FFE
ENDCHAR
STARTCHAR two
ENCODING 50
SWIDTH 500 0
DWIDTH 23 0
BBX 21 32 1 0
VVECTOR 12 43
SWIDTH1 0 -1196
DWIDTH1 0 -55
BITMAP 
01FC00
07FF00
1FFF80
3C1FC0
3007C0
6003E0
4003E0
C001E0
8001E0
0001E0
0001E0
0001C0
0001C0
000380
000380
000700
000600
000C00
001C00
003800
003000
006000
00C000
018000
030000
060008
0C0018
180030
3FFFF0
7FFFF0
FFFFE0
FFFFE0
ENDCHAR
STARTCHAR three
ENCODING 51
SWIDTH 500 0
DWIDTH 23 0
BBX 19 32 1 0
VVECTOR 10 43
SWIDTH1 0 -1196
DWIDTH1 0 -55
BITMAP 
03F800
0FFE00
1FFF00
383F00
300F80
600F80
400780
800780
000700
000700
000600
000C00
001800
001000
007C00
01FF00
07FF80
003FC0
000FC0
0007E0
0003E0
0003E0
0001E0
0001E0
0001E0
0001C0
0001C0
000380
E00700
F80E00
FC1800
3FE000
ENDCHAR
STARTCHAR four
ENCODING 52
SWIDTH 500 0
DWIDTH 23 0
BBX 21 32 1 0
VVECTOR 12 43
SWIDTH1 0 -1196
DWIDTH1 0 -55
BITMAP 
000380
000380
000780
000F80
000F80
001F80
003780
006780
006780
00C780
018780
010780
030780
060780
0C0780
0C0780
180780
300780
300780
600780
C00780
FFFFF8
FFFFF8
FFFFF8
000780
000780
000780
000780
000780
000780
000780
000780
ENDCHAR
STARTCHAR five
ENCODING 53
SWIDTH 500 0
DWIDTH 23 0
BBX 20 33 1 0
VVECTOR 11 43
SWIDTH1 0 -1196
DWIDTH1 0 -55
BITMAP 
000010
01FFE0
03FFE0
03FFE0
03FFC0
060000
060000
0C0000
080000
1F0000
1FE000
3FF800
3FFE00
03FF00
007F80
001FC0
0007C0
0003C0
0001E0
0001E0
0000E0
0000E0
0000E0
0000E0
0000C0
0000C0
0001C0
000180
700300
FC0600
FE0C00
7FF800
1FC000
ENDCHAR
STARTCHAR six
ENCODING 54
SWIDTH 500 0
DWIDTH 23 0
BBX 21 32 1 0
VVECTOR 12 43
SWIDTH1 0 -1196
DWIDTH1 0 -55
BITMAP 
0000F0
000780
003C00
007000
01E000
03C000
078000
070000
0F0000
1E0000
3E0000
3C0000
7C7E00
7DFF80
7E07C0
7C03E0
F801F0
F801F0
F801F0
F800F8
F800F8
F800F8
F800F8
F800F8
7800F8
7C00F0
7C00F0
3C01E0
1E01C0
0E0380
078700
00FC00
ENDCHAR
STARTCHAR seven
ENCODING 55
SWIDTH 500 0
DWIDTH 23 0
BBX 21 32 1 0
VVECTOR 12 43
SWIDTH1 0 -1196
DWIDTH1 0 -55
BITMAP 
1FFFF8
3FFFF0
3FFFF0
3FFFF0
700060
6000E0
4000E0
8000C0
0001C0
0001C0
000180
000380
000380
000300
000700
000700
000600
000E00
000E00
001C00
001C00
001C00
003800
003800
003800
007000
007000
006000
00E000
00E000
00C000
01C000
ENDCHAR
STARTCHAR eight
ENCODING 56
SWIDTH 500 0
DWIDTH 23 0
BBX 21 32 1 0
VVECTOR 12 43
SWIDTH1 0 -1196
DWIDTH1 0 -55
BITMAP 
03FC00
0F0780
1C01C0
3800E0
3000F0
7000F0
7000F0
7000F0
7800F0
7800E0
7C01E0
3F01C0
3F8300
1FEE00
0FF800
03FC00
01FE00
067F80
1C1FC0
380FE0
7003F0
7001F0
E000F8
E00078
E00078
E00078
E00078
700070
7000E0
3801C0
1E0780
07FC00
ENDCHAR
STARTCHAR nine
ENCODING 57
SWIDTH 500 0
DWIDTH 23 0
BBX 21 32 1 0
VVECTOR 12 43
SWIDTH1 0 -1196
DWIDTH1 0 -55
BITMAP 
01FC00
070F00
0E0380
1C01C0
3C01E0
7800F0
7800F0
F800F0
F800F8
F800F8
F800F8
F800F8
F800F8
7C00F8
7C00F8
7E00F8
3E00F8
1F83F0
0FFFF0
01F1F0
0001E0
0003E0
0003C0
0003C0
000780
000F00
001E00
003C00
007000
01E000
0F8000
780000
ENDCHAR
STARTCHAR colon
ENCODING 58
SWIDTH 261 0
DWIDTH 12 0
BBX 6 21 3 0
VVECTOR 6 43
SWIDTH1 0 -1196
DWIDTH1 0 -55
BITMAP 
78
FC
FC
FC
78
00
00
00
00
00
00
00
00
00
00
00
78
FC
FC
FC
78
ENDCHAR
STARTCHAR semicolon
ENCODING 59
SWIDTH 261 0
DWIDTH 12 0
BBX 6 29 3 -8
VVECTOR 6 43
SWIDTH1 0 -1196
DWIDTH1 0 -55
BITMAP 
70
78
F8
F8
70
00
00
00
00
00
00
00
00
00
00
00
70
F8
FC
FC
7C
0C
0C
08
18
10
20
40
80
ENDCHAR
STARTCHAR less
ENCODING 60
SWIDTH 826 0
DWIDTH 38 0
BBX 26 24 6 1
VVECTOR 19 43
SWIDTH1 0 -1196
DWIDTH1 0 -55
BITMAP 
00000040
000003C0
00000FC0
00007FC0
0001FE00
000FF800
003FC000
00FF0000
07F80000
1FE00000
FF000000
FC000000
FC000000
FF000000
1FE00000
07F80000
00FF0000
003FC000
0007F800
0001FE00
00007FC0
00000FC0
000003C0
00000040
ENDCHAR
STARTCHAR equal
ENCODING 61
SWIDTH 826 0
DWIDTH 38 0
BBX 27 12 6 7
VVECTOR 20 43
SWIDTH1 0 -1196
DWIDTH1 0 -55
BITMAP 
FFFFFFE0
FFFFFFE0
FFFFFFE0
00000000
00000000
00000000
00000000
00000000
00000000
FFFFFFE0
FFFFFFE0
FFFFFFE0
ENDCHAR
STARTCHAR greater
ENCODING 62
SWIDTH 826 0
DWIDTH 38 0
BBX 26 24 6 1
VVECTOR 19 43
SWIDTH1 0 -1196
DWIDTH1 0 -55
BITMAP 
80000000
F0000000
FC000000
FF800000
1FE00000
07FC0000
00FF0000
003FC000
0007F800
0001FE00
00003FC0
00000FC0
00000FC0
00003FC0
0001FE00
0007F800
003FC000
00FF0000
07F80000
1FE00000
FF800000
FC000000
F0000000
80000000
ENDCHAR
STARTCHAR question
ENCODING 63
SWIDTH 478 0
DWIDTH 22 0
BBX 16 33 3 0
VVECTOR 11 43
SWIDTH1 0 -1196
DWIDTH1 0 -55
BITMAP 
0FE0
3078
603C
603E
E01E
E01F
E01F
F01F
F01F
601F
001E
001E
003C
003C
0038
0070
0060
00C0
00C0
0180
0180
0100
0100
0300
0000
0000
0000
0000
0780
0FC0
0FC0
0FC0
0780
ENDCHAR
STARTCHAR at
ENCODING 64
SWIDTH 978 0
DWIDTH 45 0
BBX 39 38 3 -6
VVECTOR 23 43
SWIDTH1 0 -1196
DWIDTH1 0 -55
BITMAP 
00007FE000
0007C01C00
001E000300
00780000C0
00E0000060
01C0000030
0380000018
0700000008
0E0000000C
0C00000004
1C001F1E04
3800F19E02
3801E0DC02
7003C05C02
7007807C02
700F807C02
E00F007802
E01F007802
E01E007802
E03E00F004
E03C00F004
E03C00F004
E03C01E008
E03C01E018
603C03E010
701C06E020
701E04E040
300F18E180
3803E03E00
1800000000
0C00000000
0E00000000
0700000020
0380000070
01E00001C0
0078000700
001F003C00
0001FFC000
ENDCHAR
STARTCHAR A
ENCODING 65
SWIDTH 761 0
DWIDTH 35 0
BBX 36 33 0 0
VVECTOR 18 43
SWIDTH1 0 -1196
DWIDTH1 0 -55
BITMAP 
0000600000
0000700000
0000700000
0000F00000
0000F80000
0001F80000
0001FC0000
00037C0000
00033E0000
00063E0000
00063F0000
000C1F0000
000C1F0000
00180F8000
00180F8000
003807C000
003007C000
007007E000
006003E000
006003F000
00FFFFF000
00FFFFF000
018000F800
018000F800
038000FC00
0300007C00
0700007E00
0600003E00
0E00003F00
0E00003F00
1E00003F80
3F00007FC0
FFC001FFF0
ENDCHAR
STARTCHAR B
ENCODING 66
SWIDTH 674 0
DWIDTH 31 0
BBX 28 32 1 0
VVECTOR 15 43
SWIDTH1 0 -1196
DWIDTH1 0 -55
BITMAP 
FFFFF000
3FFFFC00
0FC03F00
07C00F80
07C007C0
07C003C0
07C003E0
07C003E0
07C003E0
07C003C0
07C007C0
07C00780
07C00F00
07C03E00
07FFF800
07FFFE00
07C03F80
07C00FC0
07C007E0
07C003E0
07C001F0
07C001F0
07C001F0
07C001F0
07C001F0
07C001F0
07C003E0
07C007E0
07C00FC0
0FE03F80
1FFFFE00
FFFFF000
ENDCHAR
STARTCHAR C
ENCODING 67
SWIDTH 696 0
DWIDTH 32 0
BBX 30 33 2 0
VVECTOR 18 43
SWIDTH1 0 -1196
DWIDTH1 0 -55
BITMAP 
0007F010
003FFE10
00FC07F0
03E001F0
07C000F0
0F800078
1F000038
1E000018
3E000018
3C000008
7C000008
7C000000
78000000
F8000000
F8000000
F8000000
F8000000
F8000000
F8000000
F8000000
F8000000
7C000000
7C000000
7C000000
3E000000
3E00000C
1F000018
1F800030
0FC00060
07E000C0
01FC0780
007FFE00
000FF000
ENDCHAR
STARTCHAR D
ENCODING 68
SWIDTH 804 0
DWIDTH 37 0
BBX 34 32 1 0
VVECTOR 18 43
SWIDTH1 0 -1196
DWIDTH1 0 -55
BITMAP 
FFFFF80000
3FFFFF0000
0FE03FE000
07C003F000
07C001FC00
07C0007C00
07C0003E00
07C0001F00
07C0001F00
07C0000F80
07C0000F80
07C0000F80
07C00007C0
07C00007C0
07C00007C0
07C00007C0
07C00007C0
07C00007C0
07C00007C0
07C00007C0
07C0000F80
07C0000F80
07C0000F80
07C0001F00
07C0001F00
07C0003E00
07C0007C00
07C001F800
07C003F000
0FE01FC000
1FFFFF0000
FFFFF80000
ENDCHAR
STARTCHAR E
ENCODING 69
SWIDTH 696 0
DWIDTH 32 0
BBX 30 32 1 0
VVECTOR 16 43
SWIDTH1 0 -1196
DWIDTH1 0 -55
BITMAP 
FFFFFFF0
1FFFFFF0
0FC000F0
07C00030
07C00030
07C00010
07C00010
07C00000
07C00000
07C00000
07C00080
07C00080
07C00180
07C00380
07FFFF80
07FFFF80
07C00380
07C00180
07C00080
07C00080
07C00080
07C00000
07C00000
07C00000
07C00004
07C00004
07C0000C
07C0000C
07C00018
07E000F8
1FFFFFF8
FFFFFFF0
ENDCHAR
STARTCHAR F
ENCODING 70
SWIDTH 609 0
DWIDTH 28 0
BBX 27 32 1 0
VVECTOR 15 43
SWIDTH1 0 -1196
DWIDTH1 0 -55
BITMAP 
FFFFFFE0
1FFFFFE0
0FE001E0
07C00060
07C00060
07C00020
07C00020
07C00000
07C00000
07C00000
07C00200
07C00200
07C00600
07C00E00
07FFFE00
07FFFE00
07C00E00
07C00600
07C00200
07C00200
07C00200
07C00000
07C00000
07C00000
07C00000
07C00000
07C00000
07C00000
07C00000
0FE00000
1FF00000
FFFE0000
ENDCHAR
STARTCHAR G
ENCODING 71
SWIDTH 804 0
DWIDTH 37 0
BBX 35 33 2 0
VVECTOR 21 43
SWIDTH1 0 -1196
DWIDTH1 0 -55
BITMAP 
0007F80800
003FFF1800
00FC07F800
03F000F800
07C0007800
0F80003800
1F00003800
1E00001800
3E00000800
7C00000800
7C00000000
7C00000000
F800000000
F800000000
F800000000
F8000FFFE0
F80000FE00
F800007C00
F800007C00
F800007C00
F800007C00
7C00007C00
7C00007C00
7C00007C00
3E00007C00
3E00007C00
1F00007C00
0F80007C00
07C0007C00
03F000F800
00FC07E000
003FFF8000
0007F80000
ENDCHAR
STARTCHAR H
ENCODING 72
SWIDTH 804 0
DWIDTH 37 0
BBX 36 32 1 0
VVECTOR 20 43
SWIDTH1 0 -1196
DWIDTH1 0 -55
BITMAP 
FFFE07FFF0
1FF000FF80
0FE0007F00
07C0003E00
07C0003E00
07C0003E00
07C0003E00
07C0003E00
07C0003E00
07C0003E00
07C0003E00
07C0003E00
07C0003E00
07C0003E00
07C0003E00
07FFFFFE00
07FFFFFE00
07C0003E00
07C0003E00
07C0003E00
07C0003E00
07C0003E00
07C0003E00
07C0003E00
07C0003E00
07C0003E00
07C0003E00
07C0003E00
07C0003E00
0FE0003F00
1FF000FF80
FFFE07FFF0
ENDCHAR
STARTCHAR I
ENCODING 73
SWIDTH 348 0
DWIDTH 16 0
BBX 15 32 1 0
VVECTOR 9 43
SWIDTH1 0 -1196
DWIDTH1 0 -55
BITMAP 
FFFE
1FF0
0FE0
07C0
07C0
07C0
07C0
07C0
07C0
07C0
07C0
07C0
07C0
07C0
07C0
07C0
07C0
07C0
07C0
07C0
07C0
07C0
07C0
07C0
07C0
07C0
07C0
07C0
07C0
07E0
1FF0
FFFE
ENDCHAR
STARTCHAR J
ENCODING 74
SWIDTH 435 0
DWIDTH 20 0
BBX 19 32 1 0
VVECTOR 11 43
SWIDTH1 0 -1196
DWIDTH1 0 -55
BITMAP 
0FFFE0
01FF00
00FE00
007C00
007C00
007C00
007C00
007C00
007C00
007C00
007C00
007C00
007C00
007C00
007C00
007C00
007C00
007C00
007C00
007C00
007C00
007C00
007C00
007C00
007C00
007C00
607C00
F07800
F87800
7CF000
7FE000
1F8000
ENDCHAR
STARTCHAR K
ENCODING 75
SWIDTH 739 0
DWIDTH 34 0
BBX 34 32 1 0
VVECTOR 19 43
SWIDTH1 0 -1196
DWIDTH1 0 -55
BITMAP 
FFFE1FFE00
1FF003F800
0FE003C000
07C0038000
07C0070000
07C00E0000
07C00C0000
07C0180000
07C0300000
07C0600000
07C0C00000
07C1800000
07C3800000
07C7000000
07CE000000
07FF000000
07FF800000
07DFC00000
07CFE00000
07C7F00000
07C3F80000
07C1FC0000
07C0FE0000
07C07F0000
07C03F8000
07C01FC000
07C00FE000
07C007F000
07C003F800
0FC001FC00
1FE003FF00
FFFC1FFFC0
ENDCHAR
STARTCHAR L
ENCODING 76
SWIDTH 652 0
DWIDTH 30 0
BBX 29 32 1 0
VVECTOR 16 43
SWIDTH1 0 -1196
DWIDTH1 0 -55
BITMAP 
FFFE0000
1FF00000
07E00000
07C00000
07C00000
07C00000
07C00000
07C00000
07C00000
07C00000
07C00000
07C00000
07C00000
07C00000
07C00000
07C00000
07C00000
07C00000
07C00000
07C00000
07C00000
07C00000
07C00000
07C00000
07C00008
07C00010
07C00030
07C00030
07C000F0
0FE003E0
1FFFFFE0
FFFFFFE0
ENDCHAR
STARTCHAR M
ENCODING 77
SWIDTH 935 0
DWIDTH 43 0
BBX 42 32 1 0
VVECTOR 23 43
SWIDTH1 0 -1196
DWIDTH1 0 -55
BITMAP 
FFC00000FFC0
1FC00001FE00
0FE00001F800
07E00001F800
07F00003F800
07F00003F800
07F80007F800
06F80006F800
06FC000EF800
067C000CF800
067E001CF800
063E0018F800
063F0038F800
061F0030F800
061F0030F800
060F8060F800
060F8060F800
0607C0E0F800
0607C0C0F800
0607E1C0F800
0603E180F800
0603F380F800
0601F300F800
0601FF00F800
0600FE00F800
0600FE00F800
06007C00F800
06007C00F800
06003C00F800
0F003800FC00
1F803803FE00
FFE0100FFFC0
ENDCHAR
STARTCHAR N
ENCODING 78
SWIDTH 761 0
DWIDTH 35 0
BBX 34 32 1 0
VVECTOR 19 43
SWIDTH1 0 -1196
DWIDTH1 0 -55
BITMAP 
FF8003FFC0
3FC0007E00
0FC0001800
0FE0001800
07F0001800
07F8001800
07FC001800
06FC001800
067E001800
063F001800
061F801800
061FC01800
060FE01800
0607E01800
0603F01800
0601F81800
0601FC1800
0600FE1800
06007F1800
06003F1800
06001F9800
06000FD800
06000FF800
060007F800
060003F800
060001F800
060000F800
060000F800
0600007800
0600003800
1F80001800
FFF0000800
ENDCHAR
STARTCHAR O
ENCODING 79
SWIDTH 804 0
DWIDTH 37 0
BBX 33 33 2 0
VVECTOR 19 43
SWIDTH1 0 -1196
DWIDTH1 0 -55
BITMAP 
000FF80000
007FFF0000
01F80FC000
03E003E000
0F8000F800
0F8000F800
1F00007C00
3E00003E00
3E00003E00
7C00001F00
7C00001F00
7C00001F00
F800000F80
F800000F80
F800000F80
F800000F80
F800000F80
F800000F80
F800000F80
F800000F80
F800000F80
7C00001F00
7C00001F00
7C00001F00
3E00003E00
3E00003E00
1F00007C00
0F8000F800
0F8000F800
03E003E000
01F80FC000
007FFF0000
000FF80000
ENDCHAR
STARTCHAR P
ENCODING 80
SWIDTH 587 0
DWIDTH 27 0
BBX 24 32 1 0
VVECTOR 13 43
SWIDTH1 0 -1196
DWIDTH1 0 -55
BITMAP 
FFFFC0
3FFFF0
0FE1F8
07C07C
07C03E
07C03E
07C01F
07C01F
07C01F
07C01F
07C01F
07C01F
07C03E
07C03E
07C07C
07C1F8
07FFE0
07FF80
07C000
07C000
07C000
07C000
07C000
07C000
07C000
07C000
07C000
07C000
07C000
0FC000
1FE000
FFFC00
ENDCHAR
STARTCHAR Q
ENCODING 81
SWIDTH 804 0
DWIDTH 37 0
BBX 33 37 2 -4
VVECTOR 19 43
SWIDTH1 0 -1196
DWIDTH1 0 -55
BITMAP 
000FF80000
007FFF0000
01F80FC000
03E003E000
0F8000F800
0F8000F800
1F00007C00
3E00003E00
3E00003E00
7C00001F00
7C00001F00
7C00001F00
F800000F80
F800000F80
F800000F80
F800000F80
F800000F80
F800000F80
F800000F80
F800000F80
F800000F80
7C00001F00
7C00001F00
7C00001F00
3E00003E00
3E00003E00
1F00007C00
0F8000F800
0F8000F000
03E003E000
01F80FC000
007FFF0000
000FFC0000
0003FE0000
0000FF8000
00003FF800
000003FF00
ENDCHAR
STARTCHAR R
ENCODING 82
SWIDTH 761 0
DWIDTH 35 0
BBX 33 32 1 0
VVECTOR 18 43
SWIDTH1 0 -1196
DWIDTH1 0 -55
BITMAP 
FFFFF80000
3FFFFE0000
0FE03F0000
07C00F8000
07C007C000
07C007E000
07C003E000
07C003E000
07C003E000
07C003E000
07C003E000
07C007C000
07C007C000
07C00F8000
07C01F0000
07C07E0000
07FFF80000
07FFF00000
07C3F80000
07C1FC0000
07C0FC0000
07C07E0000
07C03F0000
07C01F8000
07C01F8000
07C00FC000
07C007E000
07C003F000
07C001F800
0FE000FC00
1FF000FF00
FFFE007F80
ENDCHAR
STARTCHAR S
ENCODING 83
SWIDTH 543 0
DWIDTH 25 0
BBX 22 33 1 0
VVECTOR 12 43
SWIDTH1 0 -1196
DWIDTH1 0 -55
BITMAP 
01FC10
07FF90
0F03F0
1E00F0
3C0070
380030
780018
780018
7C0008
7C0008
7E0000
3F8000
3FE000
1FF800
0FFE00
07FF80
01FFC0
007FE0
001FF0
0007F8
0003F8
0000FC
00007C
C0007C
40003C
40003C
60003C
700038
780078
7C00F0
3F03E0
3FFFC0
20FF00
ENDCHAR
STARTCHAR T
ENCODING 84
SWIDTH 652 0
DWIDTH 30 0
BBX 29 32 1 0
VVECTOR 16 43
SWIDTH1 0 -1196
DWIDTH1 0 -55
BITMAP 
FFFFFFF8
FFFFFFF8
F80F8078
E00F8038
C00F8018
C00F8018
800F8008
800F8008
000F8000
000F8000
000F8000
000F8000
000F8000
000F8000
000F8000
000F8000
000F8000
000F8000
000F8000
000F8000
000F8000
000F8000
000F8000
000F8000
000F8000
000F8000
000F8000
000F8000
000F8000
001F8000
001FE000
01FFFC00
ENDCHAR
STARTCHAR U
ENCODING 85
SWIDTH 804 0
DWIDTH 37 0
BBX 36 32 1 0
VVECTOR 20 43
SWIDTH1 0 -1196
DWIDTH1 0 -55
BITMAP 
FFFE00FFF0
1FF0001F80
0FE0000F00
07C0000600
07C0000600
07C0000600
07C0000600
07C0000600
07C0000600
07C0000600
07C0000600
07C0000600
07C0000600
07C0000600
07C0000600
07C0000600
07C0000600
07C0000600
07C0000600
07C0000600
07C0000600
07C0000600
07C0000600
07C0000E00
03E0000C00
03E0000C00
03F0001C00
01F8003800
00FC00F000
007F03E000
003FFF8000
0003FC0000
ENDCHAR
STARTCHAR V
ENCODING 86
SWIDTH 761 0
DWIDTH 35 0
BBX 35 32 0 0
VVECTOR 18 43
SWIDTH1 0 -1196
DWIDTH1 0 -55
BITMAP 
FFFC007FE0
3FE0000F80
1FC0000700
0FC0000700
0FC0000E00
07E0000E00
07E0000C00
03E0001C00
03F0001800
01F0003800
01F8003000
00F8007000
00FC006000
007C00E000
007E00C000
003E01C000
003F018000
003F038000
001F030000
001F870000
000F860000
000FCE0000
0007CC0000
0007FC0000
0003FC0000
0003F80000
0001F80000
0001F00000
0001F00000
0000E00000
0000E00000
0000400000
ENDCHAR
STARTCHAR W
ENCODING 87
SWIDTH 978 0
DWIDTH 45 0
BBX 44 32 1 0
VVECTOR 24 43
SWIDTH1 0 -1196
DWIDTH1 0 -55
BITMAP 
FFF1FFF00FF0
3F807F8003E0
1F803F0001C0
1F801F000180
0F801F800380
0F800F800300
07C00F800300
07C007C00700
07E007C00600
03E007E00600
03E007E00E00
03F00FE00C00
01F00DF00C00
01F00DF01C00
00F81DF81800
00F818F81800
00FC38F83800
007C30FC3000
007C307C7000
007E707C6000
003E603E6000
003E603EE000
001FE03FC000
001FC01FC000
001FC01FC000
000F800F8000
000F800F8000
000F800F8000
000700070000
000700070000
000700070000
000200020000
ENDCHAR
STARTCHAR X
ENCODING 88
SWIDTH 761 0
DWIDTH 35 0
BBX 34 32 1 0
VVECTOR 19 43
SWIDTH1 0 -1196
DWIDTH1 0 -55
BITMAP 
FFFC07FF80
1FF000FC00
0FE0007000
07E000E000
03F000E000
01F801C000
01F8038000
00FC070000
007E060000
003F0C0000
003F180000
001FB80000
000FF00000
000FE00000
0007E00000
0003F00000
0003F00000
0007F80000
000EFC0000
000C7E0000
00187E0000
00383F0000
00701F8000
00E01F8000
00C00FC000
018007E000
030003F000
070003F000
0E0001F800
1E0001FC00
3E0001FE00
FFC01FFFC0
ENDCHAR
STARTCHAR Y
ENCODING 89
SWIDTH 761 0
DWIDTH 35 0
BBX 35 32 0 0
VVECTOR 18 43
SWIDTH1 0 -1196
DWIDTH1 0 -55
BITMAP 
FFFE007FE0
1FF0001F80
0FE0000F00
07F0000E00
03F0001C00
01F8001800
01FC003800
00FE007000
007E006000
003F00E000
003F81C000
001F818000
000FC38000
0007E70000
0007E60000
0003FC0000
0001FC0000
0001F80000
0000F80000
0000F80000
0000F80000
0000F80000
0000F80000
0000F80000
0000F80000
0000F80000
0000F80000
0000F80000
0000F80000
0001F80000
0003FE0000
001FFFC000
ENDCHAR
STARTCHAR Z
ENCODING 90
SWIDTH 696 0
DWIDTH 32 0
BBX 30 32 1 0
VVECTOR 16 43
SWIDTH1 0 -1196
DWIDTH1 0 -55
BITMAP 
1FFFFFF0
3FFFFFE0
3E0007E0
38000FC0
30001F80
30001F80
20003F00
20007E00
00007C00
0000FC00
0001F800
0003F000
0003F000
0007E000
000FC000
000FC000
001F8000
003F0000
007E0000
007E0000
00FC0000
01F80000
01F80000
03F00004
07E00004
07C0000C
0FC00008
1F800018
3F000038
3F0000F8
7FFFFFF8
FFFFFFF8
ENDCHAR
STARTCHAR bracketleft
ENCODING 91
SWIDTH 326 0
DWIDTH 15 0
BBX 10 43 4 -11
VVECTOR 11 43
SWIDTH1 0 -1196
DWIDTH1 0 -55
BITMAP 
FFC0
F800
F000
F000
F000
F000
F000
F000
F000
F000
F000
F000
F000
F000
F000
F000
F000
F000
F000
F000
F000
F000
F000
F000
F000
F000
F000
F000
F000
F000
F000
F000
F000
F000
F000
F000
F000
F000
F000
F000
F000
F800
FFC0
ENDCHAR
STARTCHAR backslash
ENCODING 92
SWIDTH 261 0
DWIDTH 12 0
BBX 13 38 0 -5
VVECTOR 7 43
SWIDTH1 0 -1196
DWIDTH1 0 -55
BITMAP 
C000
C000
6000
6000
6000
3000
3000
3000
3000
1800
1800
1800
0C00
0C00
0C00
0400
0600
0600
0600
0300
0300
0300
0100
0180
0180
0180
00C0
00C0
00C0
0060
0060
0060
0060
0030
0030
0030
0018
0018
ENDCHAR
STARTCHAR bracketright
ENCODING 93
SWIDTH 326 0
DWIDTH 15 0
BBX 10 43 1 -11
VVECTOR 5 43
SWIDTH1 0 -1196
DWIDTH1 0 -55
BITMAP 
FFC0
07C0
03C0
03C0
03C0
03C0
03C0
03C0
03C0
03C0
03C0
03C0
03C0
03C0
03C0
03C0
03C0
03C0
03C0
03C0
03C0
03C0
03C0
03C0
03C0
03C0
03C0
03C0
03C0
03C0
03C0
03C0
03C0
03C0
03C0
03C0
03C0
03C0
03C0
03C0
03C0
07C0
FFC0
ENDCHAR
STARTCHAR asciicircum
ENCODING 94
SWIDTH 978 0
DWIDTH 45 0
BBX 27 12 9 20
VVECTOR 23 43
SWIDTH1 0 -1196
DWIDTH1 0 -55
BITMAP 
001F0000
003F8000
007FC000
00FBE000
01F1F000
03C07800
07803C00
0F001E00
1E000F00
38000380
700001C0
E00000E0
ENDCHAR
STARTCHAR underscore
ENCODING 95
SWIDTH 500 0
DWIDTH 23 0
BBX 23 3 0 -11
VVECTOR 12 43
SWIDTH1 0 -1196
DWIDTH1 0 -55
BITMAP 
FFFFFE
FFFFFE
FFFFFE
ENDCHAR
STARTCHAR grave
ENCODING 96
SWIDTH 239 0
DWIDTH 11 0
BBX 6 12 2 21
VVECTOR 5 43
SWIDTH1 0 -1196
DWIDTH1 0 -55
BITMAP 
04
08
30
20
60
C0
C0
F8
FC
FC
7C
38
ENDCHAR
STARTCHAR a
ENCODING 97
SWIDTH 478 0
DWIDTH 22 0
BBX 19 22 2 0
VVECTOR 12 43
SWIDTH1 0 -1196
DWIDTH1 0 -55
BITMAP 
07F000
1C1C00
381E00
780E00
780F00
780F00
300F00
000F00
003F00
01EF00
070F00
1E0F00
380F00
780F00
700F00
F00F00
F00F00
F00F00
F81F00
7C3FA0
7FC7C0
1F0380
ENDCHAR
STARTCHAR b
ENCODING 98
SWIDTH 522 0
DWIDTH 24 0
BBX 22 32 0 0
VVECTOR 10 43
SWIDTH1 0 -1196
DWIDTH1 0 -55
BITMAP 
020000
1E0000
FE0000
3E0000
1E0000
1E0000
1E0000
1E0000
1E0000
1E0000
1E1F00
1E3FC0
1EFFE0
1F83F0
1F01F8
1E00F8
1E0078
1E007C
1E003C
1E003C
1E003C
1E003C
1E003C
1E0038
1E0038
1E0038
1E0070
1E0070
1E00E0
1F01C0
0F8380
01FC00
ENDCHAR
STARTCHAR c
ENCODING 99
SWIDTH 435 0
DWIDTH 20 0
BBX 18 22 1 0
VVECTOR 10 43
SWIDTH1 0 -1196
DWIDTH1 0 -55
BITMAP 
01FC00
0E1F00
1C0F80
380F80
380F80
700700
700000
700000
F00000
F00000
F00000
F00000
F00000
F80000
F80040
7800C0
7C0180
7E0300
3F0F00
1FFE00
0FF800
03E000
ENDCHAR
STARTCHAR d
ENCODING 100
SWIDTH 522 0
DWIDTH 24 0
BBX 22 32 1 0
VVECTOR 12 43
SWIDTH1 0 -1196
DWIDTH1 0 -55
BITMAP 
000020
0003E0
000FE0
0003E0
0001E0
0001E0
0001E0
0001E0
0001E0
0001E0
01F9E0
0F0FE0
1C07E0
3C03E0
3801E0
7801E0
7001E0
F001E0
F001E0
F001E0
F001E0
F001E0
F001E0
F801E0
F801E0
7801E0
7C01E0
7E01E0
3F03E0
1FFDFC
0FF9F0
03E180
ENDCHAR
STARTCHAR e
ENCODING 101
SWIDTH 478 0
DWIDTH 22 0
BBX 20 22 1 0
VVECTOR 11 43
SWIDTH1 0 -1196
DWIDTH1 0 -55
BITMAP 
01FE00
070F00
0C0380
1803C0
3801C0
7001E0
7001E0
7FFFE0
F00000
F00000
F00000
F00000
F00000
F80000
F80010
7C0020
7E0060
7F0040
3FC1C0
1FFF80
0FFF00
01FC00
ENDCHAR
STARTCHAR f
ENCODING 102
SWIDTH 326 0
DWIDTH 15 0
BBX 16 32 1 0
VVECTOR 10 43
SWIDTH1 0 -1196
DWIDTH1 0 -55
BITMAP 
00FC
031F
060F
0E0F
0E06
0E00
1E00
1E00
1E00
1E00
1E00
FFF8
1E00
1E00
1E00
1E00
1E00
1E00
1E00
1E00
1E00
1E00
1E00
1E00
1E00
1E00
1E00
1E00
1E00
1E00
3F80
FFF8
ENDCHAR
STARTCHAR g
ENCODING 103
SWIDTH 478 0
DWIDTH 22 0
BBX 20 33 1 -11
VVECTOR 11 43
SWIDTH1 0 -1196
DWIDTH1 0 -55
BITMAP 
01F800
073FF0
0E1FF0
1C0F00
1C0F00
3C0F80
3C0780
3C0780
3C0780
3C0780
3C0780
3E0700
1E0700
1F0E00
0F1C00
07F000
0C0000
180000
180000
3C0000
3FFF00
3FFFC0
1FFFE0
0FFFF0
1000F0
300030
600030
E00020
E00060
F000C0
7C0780
7FFE00
0FF000
ENDCHAR
STARTCHAR h
ENCODING 104
SWIDTH 543 0
DWIDTH 25 0
BBX 23 32 1 0
VVECTOR 13 43
SWIDTH1 0 -1196
DWIDTH1 0 -55
BITMAP 
020000
3E0000
FE0000
1E0000
1E0000
1E0000
1E0000
1E0000
1E0000
1E0000
1E1F80
1E3FC0
1EFFE0
1FC3E0
1F01F0
1E00F0
1E00F0
1E00F0
1E00F0
1E00F0
1E00F0
1E00F0
1E00F0
1E00F0
1E00F0
1E00F0
1E00F0
1E00F0
1E00F0
1E00F0
3F01F8
FFCFFE
ENDCHAR
STARTCHAR i
ENCODING 105
SWIDTH 261 0
DWIDTH 12 0
BBX 10 32 1 0
VVECTOR 6 43
SWIDTH1 0 -1196
DWIDTH1 0 -55
BITMAP 
0E00
1F00
1F00
1F00
0E00
0000
0000
0000
0000
0000
0200
3E00
FE00
1E00
1E00
1E00
1E00
1E00
1E00
1E00
1E00
1E00
1E00
1E00
1E00
1E00
1E00
1E00
1E00
1E00
3F00
FFC0
ENDCHAR
STARTCHAR j
ENCODING 106
SWIDTH 261 0
DWIDTH 12 0
BBX 11 43 -2 -11
VVECTOR 2 43
SWIDTH1 0 -1196
DWIDTH1 0 -55
BITMAP 
0180
03C0
03E0
03C0
0180
0000
0000
0000
0000
0000
00C0
07C0
1FC0
07C0
03C0
03C0
03C0
03C0
03C0
03C0
03C0
03C0
03C0
03C0
03C0
03C0
03C0
03C0
03C0
03C0
03C0
03C0
03C0
03C0
03C0
03C0
03C0
0380
0380
E380
F300
F600
7C00
ENDCHAR
STARTCHAR k
ENCODING 107
SWIDTH 522 0
DWIDTH 24 0
BBX 23 32 1 0
VVECTOR 13 43
SWIDTH1 0 -1196
DWIDTH1 0 -55
BITMAP 
060000
3E0000
FE0000
1E0000
1E0000
1E0000
1E0000
1E0000
1E0000
1E0000
1E0000
1E1FFC
1E03E0
1E0380
1E0600
1E0C00
1E1800
1E3000
1E6000
1EE000
1FF000
1EF800
1EF800
1E7C00
1E3E00
1E1F00
1E0F80
1E0FC0
1E07E0
1E03F0
3F03F8
FFCFFE
ENDCHAR
STARTCHAR l
ENCODING 108
SWIDTH 261 0
DWIDTH 12 0
BBX 10 32 1 0
VVECTOR 6 43
SWIDTH1 0 -1196
DWIDTH1 0 -55
BITMAP 
0600
3E00
FE00
1E00
1E00
1E00
1E00
1E00
1E00
1E00
1E00
1E00
1E00
1E00
1E00
1E00
1E00
1E00
1E00
1E00
1E00
1E00
1E00
1E00
1E00
1E00
1E00
1E00
1E00
1E00
3F00
FFC0
ENDCHAR
STARTCHAR m
ENCODING 109
SWIDTH 783 0
DWIDTH 36 0
BBX 34 22 1 0
VVECTOR 18 43
SWIDTH1 0 -1196
DWIDTH1 0 -55
BITMAP 
061F01F000
3E7F87FC00
FEFFCFFC00
3F83F83E00
1F01F01E00
1E01E01E00
1E01E01E00
1E01E01E00
1E01E01E00
1E01E01E00
1E01E01E00
1E01E01E00
1E01E01E00
1E01E01E00
1E01E01E00
1E01E01E00
1E01E01E00
1E01E01E00
1E01E01E00
1E01E01E00
3F03F03F00
FFCFFCFFC0
ENDCHAR
STARTCHAR n
ENCODING 110
SWIDTH 543 0
DWIDTH 25 0
BBX 23 22 1 0
VVECTOR 13 43
SWIDTH1 0 -1196
DWIDTH1 0 -55
BITMAP 
061F80
3E7FC0
FEFFE0
1F83F0
1F01F0
1E00F0
1E00F0
1E00F0
1E00F0
1E00F0
1E00F0
1E00F0
1E00F0
1E00F0
1E00F0
1E00F0
1E00F0
1E00F0
1E00F0
1E00F0
3F01F8
FFCFFE
ENDCHAR
STARTCHAR o
ENCODING 111
SWIDTH 543 0
DWIDTH 25 0
BBX 22 22 1 0
VVECTOR 12 43
SWIDTH1 0 -1196
DWIDTH1 0 -55
BITMAP 
01FF00
0707C0
1C03E0
3C01F0
3800F8
780078
700078
F0007C
F0003C
F0003C
F0003C
F0003C
F0003C
F0003C
F8003C
780038
780038
3C0070
3E0070
1F00E0
0F83C0
01FE00
ENDCHAR
STARTCHAR p
ENCODING 112
SWIDTH 543 0
DWIDTH 25 0
BBX 22 33 1 -11
VVECTOR 12 43
SWIDTH1 0 -1196
DWIDTH1 0 -55
BITMAP 
061F80
3E7FE0
FEE7F0
3F81F0
1F00F8
1E0078
1E007C
1E007C
1E003C
1E003C
1E003C
1E003C
1E003C
1E003C
1E0038
1E0038
1E0078
1E0070
1E00F0
1F01E0
1FC3C0
1EFF00
1E0000
1E0000
1E0000
1E0000
1E0000
1E0000
1E0000
1E0000
1E0000
3F0000
FFC000
ENDCHAR
STARTCHAR q
ENCODING 113
SWIDTH 522 0
DWIDTH 24 0
BBX 22 33 1 -11
VVECTOR 12 43
SWIDTH1 0 -1196
DWIDTH1 0 -55
BITMAP 
01FC60
070FE0
1E03E0
1C01E0
3801E0
7801E0
7001E0
7001E0
F001E0
F001E0
F001E0
F001E0
F001E0
F001E0
F801E0
7801E0
7C01E0
7E03E0
3F07E0
1FFDE0
0FF1E0
07C1E0
0001E0
0001E0
0001E0
0001E0
0001E0
0001E0
0001E0
0001E0
0001E0
0003F0
001FFC
ENDCHAR
STARTCHAR r
ENCODING 114
SWIDTH 370 0
DWIDTH 17 0
BBX 15 22 1 0
VVECTOR 9 43
SWIDTH1 0 -1196
DWIDTH1 0 -55
BITMAP 
061C
3E7E
FEFE
3F9E
1F00
1E00
1E00
1E00
1E00
1E00
1E00
1E00
1E00
1E00
1E00
1E00
1E00
1E00
1E00
1E00
3F00
FFE0
ENDCHAR
STARTCHAR s
ENCODING 115
SWIDTH 370 0
DWIDTH 17 0
BBX 14 22 1 0
VVECTOR 8 43
SWIDTH1 0 -1196
DWIDTH1 0 -55
BITMAP 
0FB0
38F0
7070
F030
F030
F010
F800
FC00
7E00
3F80
1FC0
07F0
03F8
01F8
807C
C07C
C03C
E03C
E038
F038
F860
C7C0
ENDCHAR
STARTCHAR t
ENCODING 116
SWIDTH 326 0
DWIDTH 15 0
BBX 13 27 1 0
VVECTOR 8 43
SWIDTH1 0 -1196
DWIDTH1 0 -55
BITMAP 
0200
0600
0600
0E00
1E00
3E00
FFF0
1E00
1E00
1E00
1E00
1E00
1E00
1E00
1E00
1E00
1E00
1E00
1E00
1E00
1E00
1E00
1E00
1F18
1FF0
0FE0
0780
ENDCHAR
STARTCHAR u
ENCODING 117
SWIDTH 543 0
DWIDTH 25 0
BBX 23 21 1 0
VVECTOR 13 43
SWIDTH1 0 -1196
DWIDTH1 0 -55
BITMAP 
FE07F0
3E01F0
1E00F0
1E00F0
1E00F0
1E00F0
1E00F0
1E00F0
1E00F0
1E00F0
1E00F0
1E00F0
1E00F0
1E00F0
1E00F0
1E00F0
1F01F0
1F03F0
0FFEFE
07FCF8
03F0C0
ENDCHAR
STARTCHAR v
ENCODING 118
SWIDTH 457 0
DWIDTH 21 0
BBX 22 21 -1 0
VVECTOR 10 43
SWIDTH1 0 -1196
DWIDTH1 0 -55
BITMAP 
FFC1FC
7E0078
3E0030
1E0060
1F0060
0F0060
0F80C0
0780C0
078180
03C180
03C100
01E300
01E300
01F600
00F600
00FC00
007C00
007800
003800
003800
001000
ENDCHAR
STARTCHAR w
ENCODING 119
SWIDTH 674 0
DWIDTH 31 0
BBX 32 21 -1 0
VVECTOR 15 43
SWIDTH1 0 -1196
DWIDTH1 0 -55
BITMAP 
FF8FF83F
7E07E00E
3E03E00C
1E01E00C
1E01E008
1F01F018
0F00F018
0F81F830
0781F830
07C37820
03C33C60
03C63C60
03E63EC0
01E41EC0
01FC1FC0
00F80F80
00F80F80
00780700
00700700
00700700
00200200
ENDCHAR
STARTCHAR x
ENCODING 120
SWIDTH 435 0
DWIDTH 20 0
BBX 21 21 -1 0
VVECTOR 10 43
SWIDTH1 0 -1196
DWIDTH1 0 -55
BITMAP 
FFCFF8
3F03E0
1F0180
0F8300
078300
07C600
03EC00
01F800
01F000
00F800
007800
00FC00
00BE00
019E00
031F00
060F80
060780
0C07C0
1803E0
3C07F0
FE1FF8
ENDCHAR
STARTCHAR y
ENCODING 121
SWIDTH 435 0
DWIDTH 20 0
BBX 21 32 -1 -11
VVECTOR 10 43
SWIDTH1 0 -1196
DWIDTH1 0 -55
BITMAP 
FFC3F8
3E00F0
3E0060
1E00E0
1F00C0
0F00C0
0F00C0
0F8180
078180
078100
03C300
03C300
03E200
01E600
01E600
00F400
00FC00
007C00
007800
007800
003800
003000
003000
002000
006000
006000
00C000
00C000
798000
7F0000
7F0000
3C0000
ENDCHAR
STARTCHAR z
ENCODING 122
SWIDTH 435 0
DWIDTH 20 0
BBX 18 21 1 0
VVECTOR 10 43
SWIDTH1 0 -1196
DWIDTH1 0 -55
BITMAP 
7FFFC0
700780
600F80
401F00
403E00
003C00
007C00
00F800
00F000
01F000
03E000
03C000
07C000
0F8000
1F0040
1E0040
3E0040
7C00C0
7801C0
FFFFC0
FFFF80
ENDCHAR
STARTCHAR braceleft
ENCODING 123
SWIDTH 500 0
DWIDTH 23 0
BBX 15 39 4 -6
VVECTOR 12 43
SWIDTH1 0 -1196
DWIDTH1 0 -55
BITMAP 
003E
00F0
01E0
01C0
03C0
03C0
03C0
03C0
03C0
03C0
03C0
03C0
03C0
03C0
03C0
0380
0780
0700
3E00
F000
1E00
0700
0780
0380
03C0
03C0
03C0
03C0
03C0
03C0
03C0
03C0
03C0
03C0
03C0
01C0
01E0
00F0
003E
ENDCHAR
STARTCHAR bar
ENCODING 124
SWIDTH 500 0
DWIDTH 23 0
BBX 3 45 10 -11
VVECTOR 12 43
SWIDTH1 0 -1196
DWIDTH1 0 -55
BITMAP 
E0
E0
E0
E0
E0
E0
E0
E0
E0
E0
E0
E0
E0
E0
E0
E0
E0
E0
E0
E0
E0
E0
E0
E0
E0
E0
E0
E0
E0
E0
E0
E0
E0
E0
E0
E0
E0
E0
E0
E0
E0
E0
E0
E0
E0
ENDCHAR
STARTCHAR braceright
ENCODING 125
SWIDTH 500 0
DWIDTH 23 0
BBX 15 39 4 -6
VVECTOR 12 43
SWIDTH1 0 -1196
DWIDTH1 0 -55
BITMAP 
F800
1E00
0F00
0700
0780
0780
0780
0780
0780
0780
0780
0780
0780
0780
0780
0380
03C0
01C0
00F8
001E
00F8
01C0
03C0
0380
0780
0780
0780
0780
0780
0780
0780
0780
0780
0780
0780
0700
0F00
1E00
F800
ENDCHAR
STARTCHAR asciitilde
ENCODING 126
SWIDTH 978 0
DWIDTH 45 0
BBX 27 6 9 23
VVECTOR 23 43
SWIDTH1 0 -1196
DWIDTH1 0 -55
BITMAP 
07E00060
1FFC0060
3FFFC1C0
703FFFC0
E007FF00
C000FE00
ENDCHAR
STARTCHAR char7F
ENCODING 127
SWIDTH 0 0
DWIDTH 0 0
BBX 0 0 0 -12
VVECTOR 0 -12
SWIDTH1 0 0
DWIDTH1 0 0
BITMAP 
ENDCHAR
STARTCHAR Ccedilla
ENCODING 128
SWIDTH 696 0
DWIDTH 32 0
BBX 30 44 2 -11
VVECTOR 18 43
SWIDTH1 0 -1196
DWIDTH1 0 -55
BITMAP 
0007F010
003FFE10
00FC07F0
03E001F0
07C000F0
0F800078
1F000038
1E000018
3E000018
3C000008
7C000008
7C000000
78000000
F8000000
F8000000
F8000000
F8000000
F8000000
F8000000
F8000000
F8000000
7C000000
7C000000
7C000000
3E000000
3E00000C
1F000018
1F800030
0FC00060
07E000C0
01FC0780
007FFE00
000FF000
00010000
00010000
00010000
0001F000
0001F800
00003C00
00001C00
00201C00
003C3C00
001FF800
0003F000
ENDCHAR
STARTCHAR udieresis
ENCODING 129
SWIDTH 543 0
DWIDTH 25 0
BBX 23 29 1 0
VVECTOR 13 43
SWIDTH1 0 -1196
DWIDTH1 0 -55
BITMAP 
018180
03C3C0
03C3C0
018180
000000
000000
000000
000000
FE07F0
3E01F0
1E00F0
1E00F0
1E00F0
1E00F0
1E00F0
1E00F0
1E00F0
1E00F0
1E00F0
1E00F0
1E00F0
1E00F0
1E00F0
1E00F0
1F01F0
1F03F0
0FFEFE
07FCF8
03F0C0
ENDCHAR
STARTCHAR eacute
ENCODING 130
SWIDTH 478 0
DWIDTH 22 0
BBX 20 32 1 0
VVECTOR 11 43
SWIDTH1 0 -1196
DWIDTH1 0 -55
BITMAP 
000380
000780
000F80
001F00
003C00
007000
00E000
018000
000000
000000
01FE00
070F00
0C0380
1803C0
3801C0
7001E0
7001E0
7FFFE0
F00000
F00000
F00000
F00000
F00000
F80000
F80010
7C0020
7E0060
7F0040
3FC1C0
1FFF80
0FFF00
01FC00
ENDCHAR
STARTCHAR acircumflex
ENCODING 131
SWIDTH 478 0
DWIDTH 22 0
BBX 19 32 2 0
VVECTOR 12 43
SWIDTH1 0 -1196
DWIDTH1 0 -55
BITMAP 
01C000
03E000
03E000
077000
0E3800
0C1800
180C00
300600
000000
000000
07F000
1C1C00
381E00
780E00
780F00
780F00
300F00
000F00
003F00
01EF00
070F00
1E0F00
380F00
780F00
700F00
F00F00
F00F00
F00F00
F81F00
7C3FA0
7FC7C0
1F0380
ENDCHAR
STARTCHAR adieresis
ENCODING 132
SWIDTH 478 0
DWIDTH 22 0
BBX 19 29 2 0
VVECTOR 12 43
SWIDTH1 0 -1196
DWIDTH1 0 -55
BITMAP 
0C0C00
1E1E00
1E1E00
0C0C00
000000
000000
000000
07F000
1C1C00
381E00
780E00
780F00
780F00
300F00
000F00
003F00
01EF00
070F00
1E0F00
380F00
780F00
700F00
F00F00
F00F00
F00F00
F81F00
7C3FA0
7FC7C0
1F0380
ENDCHAR
STARTCHAR agrave
ENCODING 133
SWIDTH 478 0
DWIDTH 22 0
BBX 19 32 2 0
VVECTOR 12 43
SWIDTH1 0 -1196
DWIDTH1 0 -55
BITMAP 
380000
3C0000
3E0000
0F0000
078000
01C000
00E000
003000
000000
000000
07F000
1C1C00
381E00
780E00
780F00
780F00
300F00
000F00
003F00
01EF00
070F00
1E0F00
380F00
780F00
700F00
F00F00
F00F00
F00F00
F81F00
7C3FA0
7FC7C0
1F0380
ENDCHAR
STARTCHAR aring
ENCODING 134
SWIDTH 478 0
DWIDTH 22 0
BBX 19 34 2 0
VVECTOR 12 43
SWIDTH1 0 -1196
DWIDTH1 0 -55
BITMAP 
01E000
07F000
0E1800
0C0C00
0C0C00
0C0C00
0C0C00
0E1800
07F000
01E000
000000
000000
07F000
1C3C00
381E00
780E00
780F00
780F00
300F00
000F00
003F00
01EF00
078F00
1E0F00
3C0F00
780F00
700F00
F00F00
F00F00
F00F00
F81F00
7C3FA0
7FC7C0
1F0380
ENDCHAR
STARTCHAR ccedilla
ENCODING 135
SWIDTH 435 0
DWIDTH 20 0
BBX 18 33 1 -11
VVECTOR 10 43
SWIDTH1 0 -1196
DWIDTH1 0 -55
BITMAP 
01FC00
0E1F00
1C0F80
380F80
380F80
700700
700000
700000
F00000
F00000
F00000
F00000
F00000
F80000
F80040
7800C0
7C0180
7E0300
3F0F00
1FFE00
0FF800
03E000
004000
004000
004000
007C00
007E00
000F00
000700
080700
0F0F00
07FE00
00FC00
ENDCHAR
STARTCHAR ecircumflex
ENCODING 136
SWIDTH 478 0
DWIDTH 22 0
BBX 20 32 1 0
VVECTOR 11 43
SWIDTH1 0 -1196
DWIDTH1 0 -55
BITMAP 
007000
00F800
00F800
01DC00
038E00
030600
060300
0C0180
000000
000000
01FE00
070F00
0C0380
1803C0
3801C0
7001E0
7001E0
7FFFE0
F00000
F00000
F00000
F00000
F00000
F80000
F80010
7C0020
7E0060
7F0040
3FC1C0
1FFF80
0FFF00
01FC00
ENDCHAR
STARTCHAR edieresis
ENCODING 137
SWIDTH 478 0
DWIDTH 22 0
BBX 20 29 1 0
VVECTOR 11 43
SWIDTH1 0 -1196
DWIDTH1 0 -55
BITMAP 
030300
078780
078780
030300
000000
000000
000000
01FE00
070F00
0C0380
1803C0
3801C0
7001E0
7001E0
7FFFE0
F00000
F00000
F00000
F00000
F00000
F80000
F80010
7C0020
7E0060
7F0040
3FC1C0
1FFF80
0FFF00
01FC00
ENDCHAR
STARTCHAR egrave
ENCODING 138
SWIDTH 478 0
DWIDTH 22 0
BBX 20 32 1 0
VVECTOR 11 43
SWIDTH1 0 -1196
DWIDTH1 0 -55
BITMAP 
0E0000
0F0000
0F8000
03C000
01E000
007000
003800
000C00
000000
000000
01FE00
070F00
0C0380
1803C0
3801C0
7001E0
7001E0
7FFFE0
F00000
F00000
F00000
F00000
F00000
F80000
F80010
7C0020
7E0060
7F0040
3FC1C0
1FFF80
0FFF00
01FC00
ENDCHAR
STARTCHAR idieresis
ENCODING 139
SWIDTH 261 0
DWIDTH 12 0
BBX 12 29 1 0
VVECTOR 8 43
SWIDTH1 0 -1196
DWIDTH1 0 -55
BITMAP 
6060
F0F0
F0F0
6060
0000
0000
0000
0200
3E00
FE00
1E00
1E00
1E00
1E00
1E00
1E00
1E00
1E00
1E00
1E00
1E00
1E00
1E00
1E00
1E00
1E00
1E00
3F00
FFC0
ENDCHAR
STARTCHAR icircumflex
ENCODING 140
SWIDTH 261 0
DWIDTH 12 0
BBX 13 32 0 0
VVECTOR 7 43
SWIDTH1 0 -1196
DWIDTH1 0 -55
BITMAP 
0700
0F80
0F80
1DC0
38E0
3060
6030
C018
0000
0000
0100
1F00
7F00
0F00
0F00
0F00
0F00
0F00
0F00
0F00
0F00
0F00
0F00
0F00
0F00
0F00
0F00
0F00
0F00
0F00
1F80
7FE0
ENDCHAR
STARTCHAR igrave
ENCODING 141
SWIDTH 261 0
DWIDTH 12 0
BBX 11 32 0 0
VVECTOR 5 43
SWIDTH1 0 -1196
DWIDTH1 0 -55
BITMAP 
E000
F000
F800
3C00
1E00
0700
0380
00C0
0000
0000
0100
1F00
7F00
0F00
0F00
0F00
0F00
0F00
0F00
0F00
0F00
0F00
0F00
0F00
0F00
0F00
0F00
0F00
0F00
0F00
1F80
7FE0
ENDCHAR
STARTCHAR Adieresis
ENCODING 142
SWIDTH 761 0
DWIDTH 35 0
BBX 36 39 0 0
VVECTOR 18 43
SWIDTH1 0 -1196
DWIDTH1 0 -55
BITMAP 
0003030000
0007878000
0007878000
0003030000
0000000000
0000000000
0000600000
0000700000
0000700000
0000F00000
0000F80000
0001F80000
0001FC0000
00037C0000
00033E0000
00063E0000
00063F0000
000C1F0000
000C1F0000
00180F8000
00180F8000
003807C000
003007C000
007007E000
006003E000
006003F000
00FFFFF000
00FFFFF000
018000F800
018000F800
038000FC00
0300007C00
0700007E00
0600003E00
0E00003F00
0E00003F00
1E00003F80
3F00007FC0
FFC001FFF0
ENDCHAR
STARTCHAR Aring
ENCODING 143
SWIDTH 761 0
DWIDTH 35 0
BBX 36 43 0 0
VVECTOR 18 43
SWIDTH1 0 -1196
DWIDTH1 0 -55
BITMAP 
0000F00000
0001FC0000
00038E0000
0006060000
0006030000
0006030000
0006030000
0006060000
00038E0000
0001FC0000
0000F00000
0000000000
0000600000
0000700000
0000F00000
0000F00000
0001F80000
0001F80000
0003FC0000
00037C0000
00073E0000
00063E0000
000E1F0000
000C1F0000
001C0F8000
00180F8000
00380FC000
003007C000
007007E000
006003E000
00E003F000
00FFFFF000
01FFFFF800
018000F800
038000FC00
038000FC00
0700007C00
0700007E00
0E00003E00
0E00003F00
1E00003F80
3F00003FC0
FFC001FFF0
ENDCHAR
STARTCHAR Eacute
ENCODING 144
SWIDTH 696 0
DWIDTH 32 0
BBX 30 42 1 0
VVECTOR 16 43
SWIDTH1 0 -1196
DWIDTH1 0 -55
BITMAP 
00003800
00007800
0000F800
0001F000
0003C000
00070000
000E0000
00180000
00000000
00000000
FFFFFFF0
1FFFFFF0
0FC000F0
07C00030
07C00030
07C00010
07C00010
07C00000
07C00000
07C00000
07C00080
07C00080
07C00180
07C00380
07FFFF80
07FFFF80
07C00380
07C00180
07C00080
07C00080
07C00080
07C00000
07C00000
07C00000
07C00004
07C00004
07C0000C
07C0000C
07C00018
07E000F8
1FFFFFF8
FFFFFFF0
ENDCHAR
STARTCHAR ae
ENCODING 145
SWIDTH 761 0
DWIDTH 35 0
BBX 32 22 2 0
VVECTOR 19 43
SWIDTH1 0 -1196
DWIDTH1 0 -55
BITMAP 
07F01FC0
1C3C79F0
381EC078
780F803C
780F801C
780F001E
300F001E
000FFFFE
003F0000
01EF0000
078F0000
1E0F0000
3C0F8000
780F8000
700F8001
F007C002
F007E006
F007F00C
F80FFC3C
7C39FFF8
7FE0FFF0
1F801FC0
ENDCHAR
STARTCHAR AE
ENCODING 146
SWIDTH 1043 0
DWIDTH 48 0
BBX 46 32 0 0
VVECTOR 22 43
SWIDTH1 0 -1196
DWIDTH1 0 -55
BITMAP 
0003FFFFFFF0
00007FFFFFF0
00003FC000F0
000037C00030
000067C00030
000067C00010
0000C7C00010
0000C7C00000
000187C00000
000187C00000
000307C00080
000607C00080
000607C00180
000C07C00380
000C07FFFF80
001807FFFF80
003807C00380
003FFFC00180
007FFFC00080
006007C00080
00C007C00080
00C007C00000
018007C00000
038007C00000
030007C00004
070007C00004
060007C0000C
0E0007C00008
1C0007C00038
1C0007E000F8
3E001FFFFFF8
FFC0FFFFFFF0
ENDCHAR
STARTCHAR ocircumflex
ENCODING 147
SWIDTH 543 0
DWIDTH 25 0
BBX 22 32 1 0
VVECTOR 12 43
SWIDTH1 0 -1196
DWIDTH1 0 -55
BITMAP 
003800
007C00
007C00
00EE00
01C700
018300
030180
0600C0
000000
000000
01FF00
0707C0
1C03E0
3C01F0
3800F8
780078
700078
F0007C
F0003C
F0003C
F0003C
F0003C
F0003C
F0003C
F8003C
780038
780038
3C0070
3E0070
1F00E0
0F83C0
01FE00
ENDCHAR
STARTCHAR odieresis
ENCODING 148
SWIDTH 543 0
DWIDTH 25 0
BBX 22 29 1 0
VVECTOR 12 43
SWIDTH1 0 -1196
DWIDTH1 0 -55
BITMAP 
018180
03C3C0
03C3C0
018180
000000
000000
000000
01FF00
0707C0
1C03E0
3C01F0
3800F8
780078
700078
F0007C
F0003C
F0003C
F0003C
F0003C
F0003C
F0003C
F8003C
780038
780038
3C0070
3E0070
1F00E0
0F83C0
01FE00
ENDCHAR
STARTCHAR ograve
ENCODING 149
SWIDTH 543 0
DWIDTH 25 0
BBX 22 32 1 0
VVECTOR 12 43
SWIDTH1 0 -1196
DWIDTH1 0 -55
BITMAP 
070000
078000
07C000
01E000
00F000
003800
001C00
000600
000000
000000
01FF00
0707C0
1C03E0
3C01F0
3800F8
780078
700078
F0007C
F0003C
F0003C
F0003C
F0003C
F0003C
F0003C
F8003C
780038
780038
3C0070
3E0070
1F00E0
0F83C0
01FE00
ENDCHAR
STARTCHAR ucircumflex
ENCODING 150
SWIDTH 543 0
DWIDTH 25 0
BBX 23 32 1 0
VVECTOR 13 43
SWIDTH1 0 -1196
DWIDTH1 0 -55
BITMAP 
003800
007C00
007C00
00EE00
01C700
018300
030180
0600C0
000000
000000
000000
FE07F0
3E01F0
1E00F0
1E00F0
1E00F0
1E00F0
1E00F0
1E00F0
1E00F0
1E00F0
1E00F0
1E00F0
1E00F0
1E00F0
1E00F0
1E00F0
1F01F0
1F03F0
0FFEFE
07FCF8
03F0C0
ENDCHAR
STARTCHAR ugrave
ENCODING 151
SWIDTH 543 0
DWIDTH 25 0
BBX 23 32 1 0
VVECTOR 13 43
SWIDTH1 0 -1196
DWIDTH1 0 -55
BITMAP 
070000
078000
07C000
01E000
00F000
003800
001C00
000600
000000
000000
000000
FE07F0
3E01F0
1E00F0
1E00F0
1E00F0
1E00F0
1E00F0
1E00F0
1E00F0
1E00F0
1E00F0
1E00F0
1E00F0
1E00F0
1E00F0
1E00F0
1F01F0
1F03F0
0FFEFE
07FCF8
03F0C0
ENDCHAR
STARTCHAR ydieresis
ENCODING 152
SWIDTH 435 0
DWIDTH 20 0
BBX 21 40 -1 -11
VVECTOR 10 43
SWIDTH1 0 -1196
DWIDTH1 0 -55
BITMAP 
018180
03C3C0
03C3C0
018180
000000
000000
000000
000000
FFC3F8
3E00F0
3E0060
1E00E0
1F00C0
0F00C0
0F00C0
0F8180
078180
078100
03C300
03C300
03E200
01E600
01E600
00F400
00FC00
007C00
007800
007800
003800
003000
003000
002000
006000
006000
00C000
00C000
798000
7F0000
7F0000
3C0000
ENDCHAR
STARTCHAR Odieresis
ENCODING 153
SWIDTH 804 0
DWIDTH 37 0
BBX 33 39 2 0
VVECTOR 19 43
SWIDTH1 0 -1196
DWIDTH1 0 -55
BITMAP 
000C0C0000
001E1E0000
001E1E0000
000C0C0000
0000000000
0000000000
000FF80000
007FFF0000
01F80FC000
03E003E000
0F8000F800
0F8000F800
1F00007C00
3E00003E00
3E00003E00
7C00001F00
7C00001F00
7C00001F00
F800000F80
F800000F80
F800000F80
F800000F80
F800000F80
F800000F80
F800000F80
F800000F80
F800000F80
7C00001F00
7C00001F00
7C00001F00
3E00003E00
3E00003E00
1F00007C00
0F8000F800
0F8000F800
03E003E000
01F80FC000
007FFF0000
000FF80000
ENDCHAR
STARTCHAR Udieresis
ENCODING 154
SWIDTH 804 0
DWIDTH 37 0
BBX 36 39 1 0
VVECTOR 20 43
SWIDTH1 0 -1196
DWIDTH1 0 -55
BITMAP 
0001818000
0003C3C000
0003C3C000
0001818000
0000000000
0000000000
0000000000
FFFE00FFF0
1FF0001F80
0FE0000F00
07C0000600
07C0000600
07C0000600
07C0000600
07C0000600
07C0000600
07C0000600
07C0000600
07C0000600
07C0000600
07C0000600
07C0000600
07C0000600
07C0000600
07C0000600
07C0000600
07C0000600
07C0000600
07C0000600
07C0000600
07C0000E00
03E0000C00
03E0000C00
03F0001C00
01F8003800
00FC00F000
007F03E000
003FFF8000
0003FC0000
ENDCHAR
STARTCHAR oslash
ENCODING 155
SWIDTH 543 0
DWIDTH 25 0
BBX 22 29 1 -4
VVECTOR 12 43
SWIDTH1 0 -1196
DWIDTH1 0 -55
BITMAP 
000030
000060
000060
01FEC0
0707C0
1C03E0
1803F0
3803F0
780678
700678
700C7C
F00C3C
F0183C
F0303C
F0303C
F0603C
F0603C
F8C03C
788038
798038
3F0070
3F0070
1F00E0
0F8380
0DFE00
080000
180000
100000
300000
ENDCHAR
STARTCHAR sterling
ENCODING 156
SWIDTH 500 0
DWIDTH 23 0
BBX 22 32 0 0
VVECTOR 11 43
SWIDTH1 0 -1196
DWIDTH1 0 -55
BITMAP 
001F80
0070E0
00E070
00E070
01E070
01C070
03C000
03C000
03C000
03C000
03E000
03E000
03E000
03E000
3FFF80
3FFF80
03E000
01E000
01E000
01E000
01E000
01E000
01C000
01C000
01C000
3FC000
7FC004
C3F81C
83FFF8
873FF8
EC1FF0
7807C0
ENDCHAR
STARTCHAR Oslash
ENCODING 157
SWIDTH 804 0
DWIDTH 37 0
BBX 33 37 2 -3
VVECTOR 19 43
SWIDTH1 0 -1196
DWIDTH1 0 -55
BITMAP 
0000000E00
000FF01C00
003FFE3800
00F80FF000
03E003E000
07C000F000
0F8001F800
1F0003FC00
3E00073E00
3E00061E00
7C000E1F00
7C001C1F00
7C00180F00
F800300F80
F800700F80
F800E00F80
F800C00F80
F801C00F80
F803800F80
F803000F80
F806000F80
F80E000F80
7C1C001F00
7C18001F00
7C38001F00
3E70003E00
3E60003E00
1FC0007C00
0FC000F800
07C001F000
03E003E000
07F80F8000
0E7FFE0000
0C0FF00000
1C00000000
1800000000
3000000000
ENDCHAR
STARTCHAR currency
ENCODING 158
SWIDTH 587 0
DWIDTH 27 0
BBX 23 25 2 6
VVECTOR 14 43
SWIDTH1 0 -1196
DWIDTH1 0 -55
BITMAP 
400004
E0000E
F0001E
707C3C
39FF38
1FFFF0
0F83E0
0E00E0
1C0070
1C0070
380038
380038
380038
380038
380038
1C0070
1C0070
0E00E0
0F83E0
1FFFF0
39FF38
787C3C
F0001E
E0000E
400004
ENDCHAR
STARTCHAR florin
ENCODING 159
SWIDTH 500 0
DWIDTH 23 0
BBX 22 42 0 -10
VVECTOR 11 43
SWIDTH1 0 -1196
DWIDTH1 0 -55
BITMAP 
0000F8
00039C
00071C
00063C
000E18
000E00
001C00
001C00
001C00
001C00
003C00
003C00
003C00
07FFE0
003800
007800
007800
007800
007800
007800
007800
007000
007000
007000
00F000
00F000
00F000
00F000
00E000
00E000
00E000
00E000
00E000
01C000
01C000
01C000
018000
E18000
E38000
E30000
E60000
7C0000
ENDCHAR
STARTCHAR aacute
ENCODING 160
SWIDTH 478 0
DWIDTH 22 0
BBX 19 32 2 0
VVECTOR 12 43
SWIDTH1 0 -1196
DWIDTH1 0 -55
BITMAP 
000E00
001E00
003E00
007C00
00F000
01C000
038000
060000
000000
000000
07F000
1C1C00
381E00
780E00
780F00
780F00
300F00
000F00
003F00
01EF00
070F00
1E0F00
380F00
780F00
700F00
F00F00
F00F00
F00F00
F81F00
7C3FA0
7FC7C0
1F0380
ENDCHAR
STARTCHAR iacute
ENCODING 161
SWIDTH 261 0
DWIDTH 12 0
BBX 12 32 1 0
VVECTOR 8 43
SWIDTH1 0 -1196
DWIDTH1 0 -55
BITMAP 
0070
00F0
01F0
03E0
0780
0E00
1C00
3000
0000
0000
0200
3E00
FE00
1E00
1E00
1E00
1E00
1E00
1E00
1E00
1E00
1E00
1E00
1E00
1E00
1E00
1E00
1E00
1E00
1E00
3F00
FFC0
ENDCHAR
STARTCHAR oacute
ENCODING 162
SWIDTH 543 0
DWIDTH 25 0
BBX 22 32 1 0
VVECTOR 12 43
SWIDTH1 0 -1196
DWIDTH1 0 -55
BITMAP 
0001C0
0003C0
0007C0
000F80
001E00
003800
007000
00C000
000000
000000
01FF00
0707C0
1C03E0
3C01F0
3800F8
780078
700078
F0007C
F0003C
F0003C
F0003C
F0003C
F0003C
F0003C
F8003C
780038
780038
3C0070
3E0070
1F00E0
0F83C0
01FE00
ENDCHAR
STARTCHAR uacute
ENCODING 163
SWIDTH 543 0
DWIDTH 25 0
BBX 23 32 1 0
VVECTOR 13 43
SWIDTH1 0 -1196
DWIDTH1 0 -55
BITMAP 
0001C0
0003C0
0007C0
000F80
001E00
003800
007000
00C000
000000
000000
000000
FE07F0
3E01F0
1E00F0
1E00F0
1E00F0
1E00F0
1E00F0
1E00F0
1E00F0
1E00F0
1E00F0
1E00F0
1E00F0
1E00F0
1E00F0
1E00F0
1F01F0
1F03F0
0FFEFE
07FCF8
03F0C0
ENDCHAR
STARTCHAR ntilde
ENCODING 164
SWIDTH 543 0
DWIDTH 25 0
BBX 23 31 1 0
VVECTOR 13 43
SWIDTH1 0 -1196
DWIDTH1 0 -55
BITMAP 
000040
00F0C0
03FF80
03FF80
061F00
040000
000000
000000
000000
061F80
3E7FC0
FEFFE0
1F83F0
1F01F0
1E00F0
1E00F0
1E00F0
1E00F0
1E00F0
1E00F0
1E00F0
1E00F0
1E00F0
1E00F0
1E00F0
1E00F0
1E00F0
1E00F0
1E00F0
3F01F8
FFCFFE
ENDCHAR
STARTCHAR Ntilde
ENCODING 165
SWIDTH 761 0
DWIDTH 35 0
BBX 34 41 1 0
VVECTOR 19 43
SWIDTH1 0 -1196
DWIDTH1 0 -55
BITMAP 
0000010000
0003C30000
000FFE0000
000FFE0000
00187C0000
0010000000
0000000000
0000000000
0000000000
FF8003FFC0
3FC0007E00
0FC0001800
0FE0001800
07F0001800
07F8001800
07FC001800
06FC001800
067E001800
063F001800
061F801800
061FC01800
060FE01800
0607E01800
0603F01800
0601F81800
0601FC1800
0600FE1800
06007F1800
06003F1800
06001F9800
06000FD800
06000FF800
060007F800
060003F800
060001F800
060000F800
060000F800
0600007800
0600003800
1F80001800
FFF0000800
ENDCHAR
STARTCHAR ordfeminine
ENCODING 166
SWIDTH 370 0
DWIDTH 17 0
BBX 15 15 1 17
VVECTOR 9 43
SWIDTH1 0 -1196
DWIDTH1 0 -55
BITMAP 
0FC0
3870
7030
7038
7038
0038
00F8
0738
1C38
7038
E038
E038
E038
F0FA
7F1C
ENDCHAR
STARTCHAR ordmasculine
ENCODING 167
SWIDTH 413 0
DWIDTH 19 0
BBX 17 15 1 17
VVECTOR 10 43
SWIDTH1 0 -1196
DWIDTH1 0 -55
BITMAP 
07F000
1C3C00
300E00
700700
600700
E00380
E00380
E00380
E00380
E00380
700300
700300
380600
1E1C00
07F000
ENDCHAR
STARTCHAR questiondown
ENCODING 168
SWIDTH 478 0
DWIDTH 22 0
BBX 16 33 3 0
VVECTOR 11 43
SWIDTH1 0 -1196
DWIDTH1 0 -55
BITMAP 
01E0
03F0
03F0
03F0
01E0
0000
0000
0000
0000
00C0
0080
0080
0180
0180
0300
0700
0E00
1E00
1C00
3C00
7800
7800
7000
F006
F00F
F00F
F007
F007
F807
7806
3C06
3E0C
07F0
ENDCHAR
STARTCHAR quotedblleft
ENCODING 169
SWIDTH 457 0
DWIDTH 21 0
BBX 16 12 2 21
VVECTOR 10 43
SWIDTH1 0 -1196
DWIDTH1 0 -55
BITMAP 
0401
0802
300C
2008
6018
C030
C030
F83E
FC3F
FC3F
7C1F
380E
ENDCHAR
STARTCHAR quotedblright
ENCODING 170
SWIDTH 457 0
DWIDTH 21 0
BBX 16 12 3 21
VVECTOR 12 43
SWIDTH1 0 -1196
DWIDTH1 0 -55
BITMAP 
701C
F83E
FC3F
FC3F
7C1F
0C03
0C03
1806
1004
300C
4010
8020
ENDCHAR
STARTCHAR guilsinglleft
ENCODING 171
SWIDTH 304 0
DWIDTH 14 0
BBX 10 17 2 2
VVECTOR 7 43
SWIDTH1 0 -1196
DWIDTH1 0 -55
BITMAP 
0040
00C0
0180
0300
0F00
1E00
3C00
7800
F000
7800
3C00
1E00
0F00
0300
0180
00C0
0040
ENDCHAR
STARTCHAR guilsinglright
ENCODING 172
SWIDTH 304 0
DWIDTH 14 0
BBX 10 17 2 2
VVECTOR 7 43
SWIDTH1 0 -1196
DWIDTH1 0 -55
BITMAP 
8000
C000
6000
3000
3C00
1E00
0F00
0780
03C0
0780
0F00
1E00
3C00
3000
6000
C000
8000
ENDCHAR
STARTCHAR exclamdown
ENCODING 173
SWIDTH 326 0
DWIDTH 15 0
BBX 6 33 4 0
VVECTOR 7 43
SWIDTH1 0 -1196
DWIDTH1 0 -55
BITMAP 
78
FC
FC
FC
78
00
00
00
00
30
30
30
30
30
30
30
30
78
78
78
78
78
78
78
78
F8
FC
FC
FC
FC
FC
F8
78
ENDCHAR
STARTCHAR guillemotleft
ENCODING 174
SWIDTH 500 0
DWIDTH 23 0
BBX 19 17 2 2
VVECTOR 12 43
SWIDTH1 0 -1196
DWIDTH1 0 -55
BITMAP 
004020
00C060
0180C0
030180
0F0780
1E0F00
3C1E00
783C00
F07800
783C00
3C1E00
1E0F00
0F0780
030180
0180C0
00C060
004020
ENDCHAR
STARTCHAR guillemotright
ENCODING 175
SWIDTH 500 0
DWIDTH 23 0
BBX 19 17 2 2
VVECTOR 12 43
SWIDTH1 0 -1196
DWIDTH1 0 -55
BITMAP 
804000
C06000
603000
301800
3C1C00
1E0F00
0F0780
0783C0
03C1E0
0783C0
0F0780
1E0F00
3C1E00
301800
603000
C06000
804000
ENDCHAR
STARTCHAR atilde
ENCODING 176
SWIDTH 478 0
DWIDTH 22 0
BBX 19 31 2 0
VVECTOR 12 43
SWIDTH1 0 -1196
DWIDTH1 0 -55
BITMAP 
000200
078600
1FFC00
1FFC00
30F800
200000
000000
000000
000000
07F000
1C1C00
381E00
780E00
780F00
780F00
300F00
000F00
003F00
01EF00
070F00
1E0F00
380F00
780F00
700F00
F00F00
F00F00
F00F00
F81F00
7C3FA0
7FC7C0
1F0380
ENDCHAR
STARTCHAR otilde
ENCODING 177
SWIDTH 543 0
DWIDTH 25 0
BBX 22 31 1 0
VVECTOR 12 43
SWIDTH1 0 -1196
DWIDTH1 0 -55
BITMAP 
000040
00F0C0
03FF80
03FF80
061F00
040000
000000
000000
000000
01FF00
0707C0
1C03E0
3C01F0
3800F8
780078
700078
F0007C
F0003C
F0003C
F0003C
F0003C
F0003C
F0003C
F8003C
780038
780038
3C0070
3E0070
1F00E0
0F83C0
01FE00
ENDCHAR
STARTCHAR yen
ENCODING 178
SWIDTH 674 0
DWIDTH 31 0
BBX 32 32 -1 0
VVECTOR 15 43
SWIDTH1 0 -1196
DWIDTH1 0 -55
BITMAP 
FFF803FF
3FC0007C
0F800030
07C00060
03C000C0
03E000C0
01F00180
00F00100
00780300
7FFC07FE
7FFC07FE
003E0C00
001F1800
000F1800
000FB000
0007E000
7FFFFFFE
7FFFFFFE
0003C000
0003C000
0003C000
0003C000
0003C000
0003C000
0003C000
0003C000
0003C000
0003C000
0003C000
0003C000
0007F000
007FFE00
ENDCHAR
STARTCHAR cent
ENCODING 179
SWIDTH 500 0
DWIDTH 23 0
BBX 19 29 2 -4
VVECTOR 12 43
SWIDTH1 0 -1196
DWIDTH1 0 -55
BITMAP 
000300
000300
000600
01FE00
070F80
1C0FC0
380FC0
380FC0
701B80
701000
F01000
F03000
F02000
F02000
F06000
F06000
F84000
F8C020
7CC040
7C80C0
7F8180
3F8700
1FFF00
0FFC00
03F000
020000
060000
060000
040000
ENDCHAR
STARTCHAR oe
ENCODING 180
SWIDTH 870 0
DWIDTH 40 0
BBX 38 22 1 0
VVECTOR 20 43
SWIDTH1 0 -1196
DWIDTH1 0 -55
BITMAP 
01FF007F80
0E07C1C3C0
1C01E300E0
3801F600F0
3800FE0070
78007C0078
70007C0078
F0007FFFF8
F0003C0000
F0003C0000
F0003C0000
F0003C0000
F0003E0000
F0003E0000
F8003E0004
78003F0008
78003F8018
3C007FC030
3E007FF0F0
1F00E7FFE0
0F83C3FFC0
03FE00FF00
ENDCHAR
STARTCHAR OE
ENCODING 181
SWIDTH 1087 0
DWIDTH 50 0
BBX 46 33 2 0
VVECTOR 25 43
SWIDTH1 0 -1196
DWIDTH1 0 -55
BITMAP 
0007E0000000
003FFFFFFFE0
00FEFFFFFFF0
03F01FC000F0
07C00FC00070
0F8007C00030
1F0007C00010
3E0007C00010
3E0007C00000
7C0007C00000
7C0007C00000
7C0007C00080
F80007C00080
F80007C00180
F80007C00380
F80007FFFF80
F80007FFFF80
F80007C00380
F80007C00180
F80007C00080
F80007C00080
7C0007C00080
7C0007C00000
7C0007C00000
3C0007C00000
3E0007C00004
1E0007C00004
1F0007C0000C
0F8007C00018
07C00FC00038
03E00FE000F8
00FEFFFFFFF8
003FFFFFFFF0
ENDCHAR
STARTCHAR Agrave
ENCODING 182
SWIDTH 761 0
DWIDTH 35 0
BBX 36 42 0 0
VVECTOR 18 43
SWIDTH1 0 -1196
DWIDTH1 0 -55
BITMAP 
000E000000
000F000000
000F800000
0003C00000
0001E00000
0000700000
0000380000
00000C0000
0000000000
0000600000
0000700000
0000700000
0000F00000
0000F80000
0001F80000
0001FC0000
00037C0000
00033E0000
00063E0000
00063F0000
000C1F0000
000C1F0000
00180F8000
00180F8000
003807C000
003007C000
007007E000
006003E000
006003F000
00FFFFF000
00FFFFF000
018000F800
018000F800
038000FC00
0300007C00
0700007E00
0600003E00
0E00003F00
0E00003F00
1E00003F80
3F00007FC0
FFC001FFF0
ENDCHAR
STARTCHAR Atilde
ENCODING 183
SWIDTH 761 0
DWIDTH 35 0
BBX 36 41 0 0
VVECTOR 18 43
SWIDTH1 0 -1196
DWIDTH1 0 -55
BITMAP 
0000008000
0001E18000
0007FF0000
0007FF0000
000C3E0000
0008000000
0000000000
0000000000
0000600000
0000700000
0000700000
0000F00000
0000F80000
0001F80000
0001FC0000
00037C0000
00033E0000
00063E0000
00063F0000
000C1F0000
000C1F0000
00180F8000
00180F8000
003807C000
003007C000
007007E000
006003E000
006003F000
00FFFFF000
00FFFFF000
018000F800
018000F800
038000FC00
0300007C00
0700007E00
0600003E00
0E00003F00
0E00003F00
1E00003F80
3F00007FC0
FFC001FFF0
ENDCHAR
STARTCHAR Otilde
ENCODING 184
SWIDTH 804 0
DWIDTH 37 0
BBX 33 41 2 0
VVECTOR 19 43
SWIDTH1 0 -1196
DWIDTH1 0 -55
BITMAP 
0000020000
0007860000
001FFC0000
001FFC0000
0030F80000
0020000000
0000000000
0000000000
000FF80000
007FFF0000
01F80FC000
03E003E000
0F8000F800
0F8000F800
1F00007C00
3E00003E00
3E00003E00
7C00001F00
7C00001F00
7C00001F00
F800000F80
F800000F80
F800000F80
F800000F80
F800000F80
F800000F80
F800000F80
F800000F80
F800000F80
7C00001F00
7C00001F00
7C00001F00
3E00003E00
3E00003E00
1F00007C00
0F8000F800
0F8000F800
03E003E000
01F80FC000
007FFF0000
000FF80000
ENDCHAR
STARTCHAR section
ENCODING 185
SWIDTH 500 0
DWIDTH 23 0
BBX 19 39 2 -6
VVECTOR 12 43
SWIDTH1 0 -1196
DWIDTH1 0 -55
BITMAP 
01F800
070E00
0E0600
0C0F00
1C1F00
1E1F00
1E0E00
1F0000
0F8000
0FC000
07E000
03F000
01F800
0FFC00
387E00
703F00
F00F80
F00FC0
F007E0
F803E0
7C01E0
7E01E0
3F01E0
1F81C0
0FC380
07FE00
03F000
01F800
00FC00
007E00
003E00
081F00
1E0F00
3E0F00
3E0700
3C0700
1C0E00
0C1C00
03F000
ENDCHAR
STARTCHAR daggerdbl
ENCODING 186
SWIDTH 500 0
DWIDTH 23 0
BBX 19 40 2 -7
VVECTOR 12 43
SWIDTH1 0 -1196
DWIDTH1 0 -55
BITMAP 
00E000
01F000
01F000
01F000
00E000
00E000
00C000
004000
004000
7041C0
FC4FE0
FFFFE0
FC47E0
7041C0
004000
004000
00E000
00E000
00E000
01F000
01F000
00E000
00E000
00E000
004000
004000
7041C0
FC47E0
FFFFE0
FE47E0
7041C0
004000
004000
00E000
00E000
00E000
01F000
01F000
01F000
00E000
ENDCHAR
STARTCHAR dagger
ENCODING 187
SWIDTH 500 0
DWIDTH 23 0
BBX 19 40 2 -7
VVECTOR 12 43
SWIDTH1 0 -1196
DWIDTH1 0 -55
BITMAP 
00E000
01F000
01F000
01F000
00E000
00E000
00E000
004000
004000
7041C0
FC47E0
FFFFE0
FC47E0
7041C0
004000
004000
00E000
00E000
00E000
01F000
01F000
01F000
01F000
01F000
00E000
00E000
00E000
00E000
00E000
00E000
00E000
004000
004000
004000
004000
004000
004000
004000
004000
004000
ENDCHAR
STARTCHAR paragraph
ENCODING 188
SWIDTH 500 0
DWIDTH 23 0
BBX 20 32 1 0
VVECTOR 11 43
SWIDTH1 0 -1196
DWIDTH1 0 -55
BITMAP 
07FFF0
1FFFF0
3FE180
7FE180
7FE180
FFE180
FFE180
FFE180
FFE180
FFE180
7FE180
7FE180
3FE180
1FE180
07E180
00E180
00E180
00E180
00E180
00E180
00E180
00E180
00E180
00E180
00E180
00E180
00E180
00E180
00E180
00E180
00E180
00E180
ENDCHAR
STARTCHAR copyright
ENCODING 189
SWIDTH 804 0
DWIDTH 37 0
BBX 31 31 3 -1
VVECTOR 19 43
SWIDTH1 0 -1196
DWIDTH1 0 -55
BITMAP 
000FE000
007FF800
01F01E00
07800780
0E0001C0
1C000060
180F8430
30387C38
30701C18
60E00C0C
61E00C0C
61C00C0C
C1C00406
C3C00006
C3C00006
C3C00006
C3C00006
C3C00006
C3C00006
61C0000C
61E0040C
60E00C0C
30701818
30383038
180FC070
0C0000E0
0E0001C0
03800780
01F01E00
007FFC00
000FE000
ENDCHAR
STARTCHAR registered
ENCODING 190
SWIDTH 804 0
DWIDTH 37 0
BBX 31 31 3 -1
VVECTOR 19 43
SWIDTH1 0 -1196
DWIDTH1 0 -55
BITMAP 
000FE000
007FFC00
01F03F00
03800780
070001C0
0E0000E0
1C000070
19FFE030
30787818
70383C18
60381E0C
60381E0C
C0381E06
C0383C06
C0387006
C03F8006
C038C006
C0387006
C0383806
6038380C
6038388C
60383C8C
307C3C98
39FE1F30
1C000070
0E0000E0
070001C0
03800780
01F03F00
007FFC00
000FE000
ENDCHAR
STARTCHAR trademark
ENCODING 191
SWIDTH 804 0
DWIDTH 37 0
BBX 27 12 5 19
VVECTOR 19 43
SWIDTH1 0 -1196
DWIDTH1 0 -55
BITMAP 
FFCF03E0
8C470380
8C478380
8C458580
0C05C580
0C04C580
0C04C980
0C04E980
0C047180
0C047180
0C047180
3F0F27E0
ENDCHAR
STARTCHAR quotedblbase
ENCODING 192
SWIDTH 457 0
DWIDTH 21 0
BBX 16 13 3 -8
VVECTOR 12 43
SWIDTH1 0 -1196
DWIDTH1 0 -55
BITMAP 
701C
F83E
FC3F
FC3F
7C1F
0C03
0C03
0802
1806
300C
2008
C030
8020
ENDCHAR
STARTCHAR ellipsis
ENCODING 193
SWIDTH 957 0
DWIDTH 44 0
BBX 35 5 4 0
VVECTOR 21 43
SWIDTH1 0 -1196
DWIDTH1 0 -55
BITMAP 
7800F003C0
FC01F807E0
FC01F807E0
FC01F807E0
7800F003C0
ENDCHAR
STARTCHAR perthousand
ENCODING 194
SWIDTH 1326 0
DWIDTH 61 0
BBX 55 34 3 -1
VVECTOR 31 43
SWIDTH1 0 -1196
DWIDTH1 0 -55
BITMAP 
0000000C000000
0078001C000000
01FC0038000000
07C60070000000
0F01C3B0000000
1E013C60000000
3E0100C0000000
3C0100C0000000
78010180000000
78030300000000
F0020300000000
F0060600000000
E0040C00000000
E00C0C00000000
E0181800000000
603030078000F0
7060301FE003FC
3FC0607C200F84
1F00C0F8301F06
0000C0F0101E02
000181E0103C02
000303C0107802
0003078010F002
0006078010F002
000C0F0021E004
000C0F0021E004
00180E0061C00C
00300E00C1C018
00300E0181C030
0060060300C060
00C0070E00E1C0
00C003FC007F80
018000F0001E00
03000000000000
ENDCHAR
STARTCHAR bullet
ENCODING 195
SWIDTH 674 0
DWIDTH 31 0
BBX 23 23 4 3
VVECTOR 16 43
SWIDTH1 0 -1196
DWIDTH1 0 -55
BITMAP 
00FE00
03FF80
0FFFE0
1FFFF0
3FFFF8
3FFFF8
7FFFFC
7FFFFC
FFFFFE
FFFFFE
FFFFFE
FFFFFE
FFFFFE
FFFFFE
FFFFFE
7FFFFC
7FFFFC
3FFFF8
3FFFF0
1FFFF0
0FFFE0
03FF80
00FE00
ENDCHAR
STARTCHAR endash
ENCODING 196
SWIDTH 500 0
DWIDTH 23 0
BBX 23 3 0 9
VVECTOR 12 43
SWIDTH1 0 -1196
DWIDTH1 0 -55
BITMAP 
FFFFFE
FFFFFE
FFFFFE
ENDCHAR
STARTCHAR emdash
ENCODING 197
SWIDTH 978 0
DWIDTH 45 0
BBX 45 3 0 9
VVECTOR 23 43
SWIDTH1 0 -1196
DWIDTH1 0 -55
BITMAP 
FFFFFFFFFFF8
FFFFFFFFFFF8
FFFFFFFFFFF8
ENDCHAR
STARTCHAR degree
ENCODING 198
SWIDTH 326 0
DWIDTH 15 0
BBX 13 13 1 19
VVECTOR 8 43
SWIDTH1 0 -1196
DWIDTH1 0 -55
BITMAP 
0F80
3FE0
78F0
6030
E038
C018
C018
C018
E038
6030
78F0
3FE0
0F80
ENDCHAR
STARTCHAR Aacute
ENCODING 199
SWIDTH 761 0
DWIDTH 35 0
BBX 36 42 0 0
VVECTOR 18 43
SWIDTH1 0 -1196
DWIDTH1 0 -55
BITMAP 
0000038000
0000078000
00000F8000
00001F0000
00003C0000
0000700000
0000E00000
0001800000
0000000000
0000600000
0000700000
0000700000
0000F00000
0000F80000
0001F80000
0001FC0000
00037C0000
00033E0000
00063E0000
00063F0000
000C1F0000
000C1F0000
00180F8000
00180F8000
003807C000
003007C000
007007E000
006003E000
006003F000
00FFFFF000
00FFFFF000
018000F800
018000F800
038000FC00
0300007C00
0700007E00
0600003E00
0E00003F00
0E00003F00
1E00003F80
3F00007FC0
FFC001FFF0
ENDCHAR
STARTCHAR Acircumflex
ENCODING 200
SWIDTH 761 0
DWIDTH 35 0
BBX 36 42 0 0
VVECTOR 18 43
SWIDTH1 0 -1196
DWIDTH1 0 -55
BITMAP 
0000700000
0000F80000
0000F80000
0001DC0000
00038E0000
0003060000
0006030000
000C018000
0000000000
0000600000
0000700000
0000700000
0000F00000
0000F80000
0001F80000
0001FC0000
00037C0000
00033E0000
00063E0000
00063F0000
000C1F0000
000C1F0000
00180F8000
00180F8000
003807C000
003007C000
007007E000
006003E000
006003F000
00FFFFF000
00FFFFF000
018000F800
018000F800
038000FC00
0300007C00
0700007E00
0600003E00
0E00003F00
0E00003F00
1E00003F80
3F00007FC0
FFC001FFF0
ENDCHAR
STARTCHAR Egrave
ENCODING 201
SWIDTH 696 0
DWIDTH 32 0
BBX 30 42 1 0
VVECTOR 16 43
SWIDTH1 0 -1196
DWIDTH1 0 -55
BITMAP 
00E00000
00F00000
00F80000
003C0000
001E0000
00070000
00038000
0000C000
00000000
00000000
FFFFFFF0
1FFFFFF0
0FC000F0
07C00030
07C00030
07C00010
07C00010
07C00000
07C00000
07C00000
07C00080
07C00080
07C00180
07C00380
07FFFF80
07FFFF80
07C00380
07C00180
07C00080
07C00080
07C00080
07C00000
07C00000
07C00000
07C00004
07C00004
07C0000C
07C0000C
07C00018
07E000F8
1FFFFFF8
FFFFFFF0
ENDCHAR
STARTCHAR Ecircumflex
ENCODING 202
SWIDTH 696 0
DWIDTH 32 0
BBX 30 42 1 0
VVECTOR 16 43
SWIDTH1 0 -1196
DWIDTH1 0 -55
BITMAP 
00070000
000F8000
000F8000
001DC000
0038E000
00306000
00603000
00C01800
00000000
00000000
FFFFFFF0
1FFFFFF0
0FC000F0
07C00030
07C00030
07C00010
07C00010
07C00000
07C00000
07C00000
07C00080
07C00080
07C00180
07C00380
07FFFF80
07FFFF80
07C00380
07C00180
07C00080
07C00080
07C00080
07C00000
07C00000
07C00000
07C00004
07C00004
07C0000C
07C0000C
07C00018
07E000F8
1FFFFFF8
FFFFFFF0
ENDCHAR
STARTCHAR Edieresis
ENCODING 203
SWIDTH 696 0
DWIDTH 32 0
BBX 30 39 1 0
VVECTOR 16 43
SWIDTH1 0 -1196
DWIDTH1 0 -55
BITMAP 
00303000
00787800
00787800
00303000
00000000
00000000
00000000
FFFFFFF0
1FFFFFF0
0FC000F0
07C00030
07C00030
07C00010
07C00010
07C00000
07C00000
07C00000
07C00080
07C00080
07C00180
07C00380
07FFFF80
07FFFF80
07C00380
07C00180
07C00080
07C00080
07C00080
07C00000
07C00000
07C00000
07C00004
07C00004
07C0000C
07C0000C
07C00018
07E000F8
1FFFFFF8
FFFFFFF0
ENDCHAR
STARTCHAR Igrave
ENCODING 204
SWIDTH 348 0
DWIDTH 16 0
BBX 15 42 1 0
VVECTOR 9 43
SWIDTH1 0 -1196
DWIDTH1 0 -55
BITMAP 
7000
7800
7C00
1E00
0F00
0380
01C0
0060
0000
0000
FFFE
1FF0
0FE0
07C0
07C0
07C0
07C0
07C0
07C0
07C0
07C0
07C0
07C0
07C0
07C0
07C0
07C0
07C0
07C0
07C0
07C0
07C0
07C0
07C0
07C0
07C0
07C0
07C0
07C0
07E0
1FF0
FFFE
ENDCHAR
STARTCHAR Iacute
ENCODING 205
SWIDTH 348 0
DWIDTH 16 0
BBX 15 42 1 0
VVECTOR 9 43
SWIDTH1 0 -1196
DWIDTH1 0 -55
BITMAP 
001C
003C
007C
00F8
01E0
0380
0700
0C00
0000
0000
FFFE
1FF0
0FE0
07C0
07C0
07C0
07C0
07C0
07C0
07C0
07C0
07C0
07C0
07C0
07C0
07C0
07C0
07C0
07C0
07C0
07C0
07C0
07C0
07C0
07C0
07C0
07C0
07C0
07C0
07E0
1FF0
FFFE
ENDCHAR
STARTCHAR Icircumflex
ENCODING 206
SWIDTH 348 0
DWIDTH 16 0
BBX 15 42 1 0
VVECTOR 9 43
SWIDTH1 0 -1196
DWIDTH1 0 -55
BITMAP 
0380
07C0
07C0
0EE0
1C70
1830
3018
600C
0000
0000
FFFE
1FF0
0FE0
07C0
07C0
07C0
07C0
07C0
07C0
07C0
07C0
07C0
07C0
07C0
07C0
07C0
07C0
07C0
07C0
07C0
07C0
07C0
07C0
07C0
07C0
07C0
07C0
07C0
07C0
07E0
1FF0
FFFE
ENDCHAR
STARTCHAR Idieresis
ENCODING 207
SWIDTH 348 0
DWIDTH 16 0
BBX 15 39 1 0
VVECTOR 9 43
SWIDTH1 0 -1196
DWIDTH1 0 -55
BITMAP 
1818
3C3C
3C3C
1818
0000
0000
0000
FFFE
1FF0
0FE0
07C0
07C0
07C0
07C0
07C0
07C0
07C0
07C0
07C0
07C0
07C0
07C0
07C0
07C0
07C0
07C0
07C0
07C0
07C0
07C0
07C0
07C0
07C0
07C0
07C0
07C0
07E0
1FF0
FFFE
ENDCHAR
STARTCHAR Ograve
ENCODING 208
SWIDTH 804 0
DWIDTH 37 0
BBX 33 42 2 0
VVECTOR 19 43
SWIDTH1 0 -1196
DWIDTH1 0 -55
BITMAP 
0038000000
003C000000
003E000000
000F000000
0007800000
0001C00000
0000E00000
0000300000
0000000000
000FF80000
007FFF0000
01F80FC000
03E003E000
0F8000F800
0F8000F800
1F00007C00
3E00003E00
3E00003E00
7C00001F00
7C00001F00
7C00001F00
F800000F80
F800000F80
F800000F80
F800000F80
F800000F80
F800000F80
F800000F80
F800000F80
F800000F80
7C00001F00
7C00001F00
7C00001F00
3E00003E00
3E00003E00
1F00007C00
0F8000F800
0F8000F800
03E003E000
01F80FC000
007FFF0000
000FF80000
ENDCHAR
STARTCHAR Oacute
ENCODING 209
SWIDTH 804 0
DWIDTH 37 0
BBX 33 42 2 0
VVECTOR 19 43
SWIDTH1 0 -1196
DWIDTH1 0 -55
BITMAP 
00000E0000
00001E0000
00003E0000
00007C0000
0000F00000
0001C00000
0003800000
0006000000
0000000000
000FF80000
007FFF0000
01F80FC000
03E003E000
0F8000F800
0F8000F800
1F00007C00
3E00003E00
3E00003E00
7C00001F00
7C00001F00
7C00001F00
F800000F80
F800000F80
F800000F80
F800000F80
F800000F80
F800000F80
F800000F80
F800000F80
F800000F80
7C00001F00
7C00001F00
7C00001F00
3E00003E00
3E00003E00
1F00007C00
0F8000F800
0F8000F800
03E003E000
01F80FC000
007FFF0000
000FF80000
ENDCHAR
STARTCHAR Ocircumflex
ENCODING 210
SWIDTH 804 0
DWIDTH 37 0
BBX 33 42 2 0
VVECTOR 19 43
SWIDTH1 0 -1196
DWIDTH1 0 -55
BITMAP 
0001C00000
0003E00000
0003E00000
0007700000
000E380000
000C180000
00180C0000
0030060000
0000000000
000FF80000
007FFF0000
01F80FC000
03E003E000
0F8000F800
0F8000F800
1F00007C00
3E00003E00
3E00003E00
7C00001F00
7C00001F00
7C00001F00
F800000F80
F800000F80
F800000F80
F800000F80
F800000F80
F800000F80
F800000F80
F800000F80
F800000F80
7C00001F00
7C00001F00
7C00001F00
3E00003E00
3E00003E00
1F00007C00
0F8000F800
0F8000F800
03E003E000
01F80FC000
007FFF0000
000FF80000
ENDCHAR
STARTCHAR Scaron
ENCODING 211
SWIDTH 543 0
DWIDTH 25 0
BBX 22 42 1 0
VVECTOR 12 43
SWIDTH1 0 -1196
DWIDTH1 0 -55
BITMAP 
0600C0
030180
018300
01C700
00EE00
007C00
007C00
003800
000000
01FC10
07FF90
0F03F0
1E00F0
3C0070
380030
780018
780018
7C0008
7C0008
7E0000
3F8000
3FE000
1FF800
0FFE00
07FF80
01FFC0
007FE0
001FF0
0007F8
0003F8
0000FC
00007C
C0007C
40003C
40003C
60003C
700038
780078
7C00F0
3F03E0
3FFFC0
20FF00
ENDCHAR
STARTCHAR scaron
ENCODING 212
SWIDTH 370 0
DWIDTH 17 0
BBX 14 32 1 0
VVECTOR 8 43
SWIDTH1 0 -1196
DWIDTH1 0 -55
BITMAP 
600C
3018
1830
1C70
0EE0
07C0
07C0
0380
0000
0000
0FB0
38F0
7070
F030
F030
F010
F800
FC00
7E00
3F80
1FC0
07F0
03F8
01F8
807C
C07C
C03C
E03C
E038
F038
F860
C7C0
ENDCHAR
STARTCHAR Ugrave
ENCODING 213
SWIDTH 804 0
DWIDTH 37 0
BBX 36 42 1 0
VVECTOR 20 43
SWIDTH1 0 -1196
DWIDTH1 0 -55
BITMAP 
0007000000
0007800000
0007C00000
0001E00000
0000F00000
0000380000
00001C0000
0000060000
0000000000
0000000000
FFFE00FFF0
1FF0001F80
0FE0000F00
07C0000600
07C0000600
07C0000600
07C0000600
07C0000600
07C0000600
07C0000600
07C0000600
07C0000600
07C0000600
07C0000600
07C0000600
07C0000600
07C0000600
07C0000600
07C0000600
07C0000600
07C0000600
07C0000600
07C0000600
07C0000E00
03E0000C00
03E0000C00
03F0001C00
01F8003800
00FC00F000
007F03E000
003FFF8000
0003FC0000
ENDCHAR
STARTCHAR Uacute
ENCODING 214
SWIDTH 804 0
DWIDTH 37 0
BBX 36 42 1 0
VVECTOR 20 43
SWIDTH1 0 -1196
DWIDTH1 0 -55
BITMAP 
000001C000
000003C000
000007C000
00000F8000
00001E0000
0000380000
0000700000
0000C00000
0000000000
0000000000
FFFE00FFF0
1FF0001F80
0FE0000F00
07C0000600
07C0000600
07C0000600
07C0000600
07C0000600
07C0000600
07C0000600
07C0000600
07C0000600
07C0000600
07C0000600
07C0000600
07C0000600
07C0000600
07C0000600
07C0000600
07C0000600
07C0000600
07C0000600
07C0000600
07C0000E00
03E0000C00
03E0000C00
03F0001C00
01F8003800
00FC00F000
007F03E000
003FFF8000
0003FC0000
ENDCHAR
STARTCHAR Ucircumflex
ENCODING 215
SWIDTH 804 0
DWIDTH 37 0
BBX 36 42 1 0
VVECTOR 20 43
SWIDTH1 0 -1196
DWIDTH1 0 -55
BITMAP 
0000380000
00007C0000
00007C0000
0000EE0000
0001C70000
0001830000
0003018000
000600C000
0000000000
0000000000
FFFE00FFF0
1FF0001F80
0FE0000F00
07C0000600
07C0000600
07C0000600
07C0000600
07C0000600
07C0000600
07C0000600
07C0000600
07C0000600
07C0000600
07C0000600
07C0000600
07C0000600
07C0000600
07C0000600
07C0000600
07C0000600
07C0000600
07C0000600
07C0000600
07C0000E00
03E0000C00
03E0000C00
03F0001C00
01F8003800
00FC00F000
007F03E000
003FFF8000
0003FC0000
ENDCHAR
STARTCHAR Ydieresis
ENCODING 216
SWIDTH 761 0
DWIDTH 35 0
BBX 35 39 0 0
VVECTOR 18 43
SWIDTH1 0 -1196
DWIDTH1 0 -55
BITMAP 
0006060000
000F0F0000
000F0F0000
0006060000
0000000000
0000000000
0000000000
FFFE007FE0
1FF0001F80
0FE0000F00
07F0000E00
03F0001C00
01F8001800
01FC003800
00FE007000
007E006000
003F00E000
003F81C000
001F818000
000FC38000
0007E70000
0007E60000
0003FC0000
0001FC0000
0001F80000
0000F80000
0000F80000
0000F80000
0000F80000
0000F80000
0000F80000
0000F80000
0000F80000
0000F80000
0000F80000
0000F80000
0001F80000
0003FE0000
001FFFC000
ENDCHAR
STARTCHAR germandbls
ENCODING 217
SWIDTH 543 0
DWIDTH 25 0
BBX 22 32 1 0
VVECTOR 12 43
SWIDTH1 0 -1196
DWIDTH1 0 -55
BITMAP 
00FF00
0387C0
0701E0
0F01E0
0E00F0
0E00F0
1E00F0
1E00F0
1E00F0
1E00E0
1E00E0
1E01C0
1E0380
1E0700
1E3E00
1E07C0
1E01F0
1E00F8
1E0078
1E007C
1E003C
1E003C
1E003C
1E003C
1E003C
1E003C
1E0038
1E3038
1E7878
1E7870
3E78E0
FE3FC0
ENDCHAR
STARTCHAR charDA
ENCODING 218
SWIDTH 0 0
DWIDTH 0 0
BBX 0 0 0 -12
VVECTOR 0 -12
SWIDTH1 0 0
DWIDTH1 0 0
BITMAP 
ENDCHAR
STARTCHAR charDB
ENCODING 219
SWIDTH 0 0
DWIDTH 0 0
BBX 0 0 0 -12
VVECTOR 0 -12
SWIDTH1 0 0
DWIDTH1 0 0
BITMAP 
ENDCHAR
STARTCHAR charDC
ENCODING 220
SWIDTH 0 0
DWIDTH 0 0
BBX 0 0 0 -12
VVECTOR 0 -12
SWIDTH1 0 0
DWIDTH1 0 0
BITMAP 
ENDCHAR
STARTCHAR charDD
ENCODING 221
SWIDTH 0 0
DWIDTH 0 0
BBX 0 0 0 -12
VVECTOR 0 -12
SWIDTH1 0 0
DWIDTH1 0 0
BITMAP 
ENDCHAR
STARTCHAR charDE
ENCODING 222
SWIDTH 0 0
DWIDTH 0 0
BBX 0 0 0 -12
VVECTOR 0 -12
SWIDTH1 0 0
DWIDTH1 0 0
BITMAP 
ENDCHAR
STARTCHAR charDF
ENCODING 223
SWIDTH 0 0
DWIDTH 0 0
BBX 0 0 0 -12
VVECTOR 0 -12
SWIDTH1 0 0
DWIDTH1 0 0
BITMAP 
ENDCHAR
STARTCHAR charE0
ENCODING 224
SWIDTH 0 0
DWIDTH 0 0
BBX 0 0 0 -12
VVECTOR 0 -12
SWIDTH1 0 0
DWIDTH1 0 0
BITMAP 
ENDCHAR
STARTCHAR beta
ENCODING 225
SWIDTH 543 0
DWIDTH 25 0
BBX 22 32 1 0
VVECTOR 12 43
SWIDTH1 0 -1196
DWIDTH1 0 -55
BITMAP 
00FF00
0387C0
0701E0
0F01E0
0E00F0
0E00F0
1E00F0
1E00F0
1E00F0
1E00E0
1E00E0
1E01C0
1E0380
1E0700
1E3E00
1E07C0
1E01F0
1E00F8
1E0078
1E007C
1E003C
1E003C
1E003C
1E003C
1E003C
1E003C
1E0038
1E3038
1E7878
1E7870
3E78E0
FE3FC0
ENDCHAR
ENDFONT
